<svg id="Layer_1" data-name="Layer 1" xmlns="http://www.w3.org/2000/svg" viewBox="0 0 1200 1200"><defs><style>.cls-1{fill:#f05755;}</style></defs><title>Artboard 2</title><path class="cls-1" d="M973.18,298.94,624.79,109.42a52.36,52.36,0,0,0-49.58,0L226.82,298.94c-15.55,8.46-25.21,24.32-25.21,41.4v519.3c0,17.08,9.66,33,25.21,41.42l348.39,189.51a52.29,52.29,0,0,0,49.58,0L973.18,901.06c15.55-8.47,25.21-24.34,25.21-41.42V340.34C998.39,323.26,988.73,307.4,973.18,298.94Zm7.54,560.7c0,10.56-6.11,20.45-16,25.81L616.38,1075a34.64,34.64,0,0,1-32.76,0L235.24,885.45c-9.84-5.36-16-15.25-16-25.81V340.34c0-10.55,6.12-20.43,16-25.79L583.62,125a34.55,34.55,0,0,1,32.76,0L964.76,314.55c9.85,5.36,16,15.24,16,25.79Z"/><path class="cls-1" d="M927.19,688.22a218.83,218.83,0,0,0,12.55-32.12,319.51,319.51,0,0,1-7.19,33.73,85.67,85.67,0,0,0,14.94-67.54A88.23,88.23,0,0,0,927.19,688.22Z"/><path class="cls-1" d="M856.78,474l15.07-3.6,6.08,15.18-13.36,7.88,5,12.48,73.31-44.25-7.26-18.1-83.38,19.06Zm68.35-16.37-37.24,22-4.77-11.92Z"/><polygon class="cls-1" points="927.63 524.45 922.01 513.03 916.4 524.45 903.86 526.28 912.94 535.17 910.79 547.72 922.01 541.79 933.23 547.72 931.09 535.17 940.17 526.28 927.63 524.45"/><path class="cls-1" d="M894.29,777.08a5.81,5.81,0,0,0-.47,3.58,3.89,3.89,0,0,0,3.22,2.51,8.71,8.71,0,0,0,4.2-.64c6.77-2.46,12.12-7.73,16.81-13.22a141.15,141.15,0,0,0,31-64.55A151.72,151.72,0,0,0,894.29,777.08Z"/><path class="cls-1" d="M920,711.23a4.66,4.66,0,0,0,5.57,2.14,7.49,7.49,0,0,0,4.38-4.56,6.15,6.15,0,0,0,.25-4.4,5.27,5.27,0,0,0-5.6-3,9.06,9.06,0,0,0-5.65,3.55,6.59,6.59,0,0,1,4.05-.59,8.6,8.6,0,0,0-1.91,1.59A5,5,0,0,0,920,711.23Z"/><path class="cls-1" d="M910.33,633.28a16,16,0,0,0,2.43,5.21,5.8,5.8,0,0,0,5,2.39,5.71,5.71,0,0,0,4.1-3.1,14.44,14.44,0,0,0,1.35-5.15c1.3-11.27-.77-22.74-4.63-33.4s-9.47-20.59-15.43-30.22l0,.47C900.69,590.91,903.69,612.78,910.33,633.28Z"/><path class="cls-1" d="M867.67,823.52c7.12-4.58,14.79-8.46,14.79-8.46s6.63,5.78,13.88,3.08S901,806.35,901,806.35s-5.93-5.53-13,.4c.78-4.47,8.7-4.57,8.7-4.57s-8.67-3.65-13.58,5.73a14.45,14.45,0,0,0-1.29,3.35,234.78,234.78,0,0,0-25.32,15.18S877.81,795.07,888,773.3s18.56-43.95,23.85-64.88,7.79-44.91,7.79-44.91,4.31-8.58,1.21-11.5-5.28,2.53-4.55,9.27c-1.13,7.64-5.8,40.7-12.15,60.22s-14.33,40-22.22,55.87c.49-6.56,5.29-29.74-4.85-56.66-.68-5.42-1.11-10.76-3.87-11.74-3.06-.82-4.67,3-4.47,4.64,2.47,4,5.35,6,7.6,18.76s6,32.18-2.36,58.77c-7.4,13.7-10.88,19.2-17.11,28.14-6.16,8.69-21,26.75-28.7,34.64S805,876.54,793.6,887c5.18-9.56,12.58-18.86,12.39-21.26,2.87-1.58,7.07-8.38,3.35-11s-7,6.6-6.5,10.39c-4.27,7-15.76,25.77-34.86,39.72-23.64,13.65-54.47,29.4-70.62,33.52,7.62-9.22,14.93-17.51,15.48-18.35,4.11-1.39,13.35-6.4,5.11-14.51,0,0-12.59-1.62-8.6,12,0,0-4.48,9.21-18.15,20.78-15,6.85-31.4,12.61-70.07,15.65,0,0,8.55,4.11,11.43,4.06,6.94-.41,29.82-4.5,32.79-3.8,5.74,1,31.64,12.66,62.3,8.81,0,0,1.59-1.93-14-6.53s-36.43-5.81-41-5.17a510.78,510.78,0,0,0,53.54-18.57c22.91-9.71,54.75-31.87,54.75-31.87s18.09-13.36,22.84-16.42,24.18-12.78,32.07-11.3c-8.76,4-32.67,14.52-32.67,14.52s10,3.56,36.48-3.68,56.11-29.67,67.53-46.45c-8.22.25-37.15,1.85-85.48,29.53C839.52,847.56,847,836,867.67,823.52Z"/><path class="cls-1" d="M836.79,437.28l29.34-18,2.39,3.93c3.15,5.17,2.06,9-4.63,13.06l-11.32,7c-5.87,3.6-6.75,4.71-8.22,6.48l7,11.57c2-2.78,4.5-4.47,8-6.61l11.11-6.83c7.52-4.62,11.85-9.82,10.75-17,5.45,3.61,11.74,3,19.14-1.53l5.67-3.47c11.11-6.83,13.49-15.25,6.31-27l-10.45-17.17-72,44.25Zm61.76-37.93,3.34,5.48c2.45,4,1.26,7.18-3.89,10.34l-7.1,4.36c-5.77,3.54-9.19,2.09-11.77-2.15l-2.71-4.44Z"/><path class="cls-1" d="M899.11,711.86c1.57-8.16,3.16-16.42,2.66-24.72-.37-6.14-1.88-12.14-3.39-18.1-2.16-8.59-4.51-17.55-10.39-24.17-4,8.26-5.39,17.53-6.2,26.68-1.66,18.68-.83,38.63,9.13,54.5a69.27,69.27,0,0,1-.15-15.3,62.21,62.21,0,0,0,3.82,17.51C896.93,723.09,898,717.44,899.11,711.86Z"/><polygon class="cls-1" points="826.16 420.85 835.33 412.98 820.46 395.47 839.28 379.34 851.1 393.26 860.28 385.39 848.45 371.48 866.35 356.14 881.23 373.65 890.4 365.79 866.91 338.14 802.66 393.2 826.16 420.85"/><path class="cls-1" d="M861.28,726.77A150.68,150.68,0,0,0,831,834.45q5.41-11.52,10.81-23l.11-.27c-.94,6.5-1.91,13-2.85,19.51A129.41,129.41,0,0,0,861.28,726.77Z"/><path class="cls-1" d="M789.59,365c-1.07-1-2.32-2.12-3.31-3.18l-8.11,9a55.91,55.91,0,0,0,4.58,4.49c7.42,6.76,17,9.63,28.39-2.95l42.62-47.22-9.84-8.95-43.27,47.95C796.28,368.93,792.72,367.83,789.59,365Z"/><path class="cls-1" d="M808.48,840.94a8.18,8.18,0,0,0-.72,3.17,5.89,5.89,0,0,0,.69,2.45,8.34,8.34,0,0,0,9.19,4,10.09,10.09,0,0,0,7.11-7.39,7.78,7.78,0,0,0-.12-4.56,7.63,7.63,0,0,0-1.38-2.26,11,11,0,0,0-14.19-1.83,13.77,13.77,0,0,1,6.64.72,4.83,4.83,0,0,0-4.4,1.15A11.22,11.22,0,0,0,808.48,840.94Z"/><polygon class="cls-1" points="775.85 368.54 782.74 358.59 763.93 345.44 778.06 325.04 793.01 335.5 799.9 325.56 784.95 315.1 798.39 295.71 817.2 308.86 824.1 298.92 794.39 278.15 746.14 347.77 775.85 368.54"/><path class="cls-1" d="M807,914.84c7.82-1.88,6.06-11.34,6.06-11.34-8.69-13.44-24.43-1.61-22.11,5.64S797.46,917.14,807,914.84Z"/><path class="cls-1" d="M764.81,927.06s-32.34,5.38-41.07,16.28c3,2.6,19.74,4.67,32.27,2.78-.83.2-16.21,3.8-25.44,2.74,15.64,7.62,57.69,14.25,114.53-19C845.1,929.88,828.83,919.87,764.81,927.06Z"/><path class="cls-1" d="M780.31,872.7c23.37-32.66,22.29-63.36,22.29-63.36s-38,20.73-59.29,71.74c-9.65,23.79-9.48,27-9.48,27s6.58-1.82,38.57-45.12c-.48.85-16.27,28.14-33.24,43.9C746.93,906.73,757,905.36,780.31,872.7Z"/><path class="cls-1" d="M855,590.87c0-141.44-114.16-256.11-255-256.13H600c-140.83,0-255,114.69-255,256.13S459.16,847,600,847,855,732.33,855,590.87Zm-111.71-190-52.43,49.75-23.1-9.15c-.23-2.22-.52-5-.88-8.14l31.86-59.24A235.47,235.47,0,0,1,743.31,400.83Zm-50.93-29.62c1.9.82,3.79,1.65,5.67,2.51l-32,52.22c-1.23-9.89-2.85-21.28-4.69-29.44l-.68-3-2.42-1.94c-3.87-3.11-8.94-4.76-14.48-5.42l6.69-28.23A235.34,235.34,0,0,1,692.38,371.21Zm-43.19,62.87L633.86,428l-4.73-1.87-15-5.91a84,84,0,0,1-1.69-11.75,83.26,83.26,0,0,1,23.37-5c1.32-.06,2.6-.08,3.8,0a19.8,19.8,0,0,1,5.24.77C646.63,413.13,648.15,424.91,649.19,434.08Zm.29-76.41-8.38,28.19c-14.9-.93-32.32,4.51-39.39,8.07l-1.18-41.44A236.81,236.81,0,0,1,649.48,357.67Zm-50-5.18-1.24,44c-3,3.38-4,8.34-3.07,16.74l-.8-.13h0l-4.5.12-2.26.06-2.28.14c-1.52.1-3,.16-4.56.3l-4.62.47c-1.56.2-3.14.46-4.7.68-1.22.21-2.45.47-3.69.73l-17.22-57.9A237,237,0,0,1,599.46,352.49ZM525.08,505.78c-1.34-3.13-2.3-5.39-2.7-6.35a1.31,1.31,0,0,1,0-.15h0c-.39-1.23-.78-2.5-1.16-3.77-3.6-12.06-6.9-25.47-7.3-31,.38-.31.79-.63,1.22-.95a39.9,39.9,0,0,1,4.61-2.92c6.56-3.6,15.39-6.53,23.07-6.53h0c.35,1.63.73,3.43,1.14,5.34,1.82,8.53,4.26,19.57,6.87,30.71,1.21,5.16,2.46,10.34,3.7,15.3.82,3.27,1.64,6.45,2.44,9.45,1.27,4.8,2.5,9.17,3.63,12.84.16.48.3,1,.45,1.41l-.61.31c-4,2-8.71,4.14-13.27,6-2.55,1-5.06,2-7.41,2.93-1-2-1.89-4-2.82-6-1.51-3.26-3-6.5-4.38-9.62C529.57,516.17,527,510.14,525.08,505.78ZM527.65,554c-.09.11-.2.22-.3.33l-.6.69-.66.67-.66.66-.71.64c-.24.21-.47.43-.72.64l-.74.6c-.26.21-.5.43-.76.62l-.79.58-.8.57-.82.55-.82.56-.85.51-.86.5-.87.48c-.58.32-1.17.64-1.78.92s-1.18.59-1.8.82-1.22.55-1.85.76l-.36.13c-.61-.84-1.2-1.7-1.81-2.54-.89-1.22-1.71-2.52-2.56-3.79s-1.67-2.57-2.49-3.87-1.65-2.61-2.44-4c-.56-1-1.13-1.89-1.69-2.85-.23-.38-.46-.76-.67-1.15L496.91,543l-.53-1-1.73-3.13c-.75-1.37-1.47-2.77-2.2-4.15s-1.45-2.78-2.18-4.18-1.42-2.8-2.12-4.21-1.4-2.81-2.09-4.22c-.94-1.93-1.86-3.87-2.77-5.8-.42-.92-.85-1.82-1.27-2.74-.5-1.07-1-2.14-1.47-3.21-.81-1.8-1.61-3.59-2.38-5.36h0c-.5-2.06-1-4.14-1.55-6.22-.13-.48-.25-1-.38-1.44q1.8-1.51,3.65-2.91a69.31,69.31,0,0,1,8.17-5.39c.69-.37,1.37-.76,2.06-1.09s1.37-.64,2-.95l1.61-.63.42-.16c.34-.13.67-.23,1-.33s.66-.22,1-.28l.94-.24.92-.18.32,0c.51,1.5,1.05,3,1.58,4.5.08.22.16.46.25.69.51,1.45,1,2.9,1.57,4.35q.91,2.52,1.86,5t1.9,5c.05.13.11.26.15.4l.07.21.15.37a.24.24,0,0,1,0,.07,2.22,2.22,0,0,1,.11.25c.47,1.24.95,2.47,1.44,3.71.66,1.66,1.31,3.33,2,5l1.13,2.78.91,2.2q1.2,2.88,2.45,5.76l1.81,4.15L518,534.6c.78,1.64,1.52,3.28,2.31,4.91l.87,1.81c.5,1,1,2.06,1.52,3.09.76,1.51,1.52,3,2.32,4.53.06.11.11.22.18.34.71,1.4,1.47,2.79,2.24,4.19Zm32.46-114.21,0,0v0l.13-.19a2,2,0,0,1-.12.19h0l0,0Zm.61,9.29c-.1-1.36-.17-2.71-.21-4s-.07-2.61,0-3.8c0-.57,0-1.15.09-1.62a5.36,5.36,0,0,1,.07-.66h0l.28-.48.32-.53.18-.26.16-.25.13-.17A1.16,1.16,0,0,1,562,437c.09-.09.15-.2.25-.29s.22-.18.32-.28a1.78,1.78,0,0,1,.39-.28l.42-.31c.37-.2.73-.41,1.09-.63s.91-.38,1.35-.59,1-.36,1.53-.55l.24-.08a4.29,4.29,0,0,1,.54-.19l.86-.23,1.72-.47c.71-.13,1.41-.28,2.12-.43l1.58-.29c1.29-.19,2.56-.4,3.86-.57l4-.4c1.26-.12,2.54-.18,3.8-.25,0,.54,0,1.09,0,1.64,0,1.36-.07,2.71-.1,4.07s-.12,2.72-.17,4.07c0,.68-.09,1.35-.13,2s-.08,1.36-.14,2l-.18,2-.21,2-.25,2c-.09.67-.2,1.34-.31,2l-.35,2.08,1.54,1.86,10.45,12.53,4.11,4.94v4.5q0,3.21-.09,6.42c0,2.14-.1,4.28-.18,6.42s-.16,4.27-.25,6.39-.22,4.27-.35,6.39l-.22,3.18c-.08,1.05-.14,2.11-.23,3.16-.18,2.12-.35,4.22-.57,6.32,0,.14,0,.3,0,.46l-.76.22-1.92.55-2,.46c-.66.17-1.34.3-2,.44s-1.34.28-2,.39l-2.07.36-2.09.3c-.69.11-1.4.18-2.1.28s-1.41.16-2.12.22l-2.13.21c-.69.06-1.39.12-2.09.16-.72-2.41-1.52-5.27-2.37-8.45-.37-1.4-.76-2.84-1.15-4.36-2.26-8.71-4.81-19.2-7.24-29.79-1.69-7.38-3.34-14.8-4.81-21.68-.14-1.21-.28-2.5-.39-3.76S560.81,450.44,560.72,449.08Zm-53.1-77.87a234.93,234.93,0,0,1,41.93-13.34l13.91,58.78-.51.14c-.42.13-.86.28-1.28.43-.84.31-1.67.57-2.54.93s-1.74.77-2.6,1.16-1.79,1-2.67,1.51l-1.35,1c-.44.33-.89.62-1.33,1a23.22,23.22,0,0,0-4.56,5.2l-.42.65-.23.4-.22.37-.29.45-.06.09-.08.13h0l0,.06-.1.16-.29.5a11.51,11.51,0,0,0-.78,1.67l-.14.37-.09.3-.18.59c-.13.42-.18.71-.26,1.05-.12.57-.22,1.08-.28,1.56q-1.38,0-2.76.06L502,373.72C503.83,372.86,505.71,372,507.62,371.21Zm-6.38,2.84,33.82,62.88A69.83,69.83,0,0,0,506.38,448l-49.69-47.15A235.47,235.47,0,0,1,501.24,374.05ZM526.46,663l-.69,7.53-31.08,57.78L525,678.82,512.8,812.66q-2.59-1-5.18-2.13a238.84,238.84,0,0,1-75.45-388.22,242,242,0,0,1,24.17-21.21l46.55,49.49a37.27,37.27,0,0,0-3.95,3.71l-.83.92-.56,1.11c-1.18,2.37-1.77,5.41-1.12,11.2-.45.05-.88.12-1.32.19l-1.78.34c-.58.13-1.15.29-1.73.42s-1.11.32-1.67.49-1.09.34-1.62.54c-1.06.37-2.08.79-3.1,1.21s-2,.88-2.93,1.37c-.75.35-1.46.74-2.18,1.12l-62.5-33.9,58.55,36.21c-.66.41-1.31.84-2,1.26-.85.56-1.69,1.14-2.51,1.71s-1.63,1.19-2.43,1.79c-1.61,1.21-3.16,2.46-4.69,3.75-.76.65-1.52,1.31-2.27,2l-1.13,1-.56.54-.64.61-1.74,10.17a4.29,4.29,0,0,1-.21-.46l.08.24.11.29.11.34c.14.46.3,1,.45,1.48.31,1,.61,2.1.91,3.16l.59,2.12-63.7-15.21,64.82,19.44.05.16.57,2.15-.05,0,.12.28c.95,3.57,1.88,7.18,2.79,10.78l3.36,13.32,1.57,6.31-80.4,2.28,81.54,2.33.61,2.43,6.31,25.61-81.29,24.38L479,580.14l.78,3.13.82,3.34c.15.56.27,1.11.42,1.68l.46,1.72.92,3.46c.32,1.15.59,2.3,1,3.44.72,2.28,1.42,4.56,2.16,6.83l1.52,4.15-69.44,43,71.13-38.58,2,4.84c1,2.17,2.05,4.34,3.12,6.49l1.7,3.17c.58,1.06,1.11,2.14,1.75,3.15L499.2,633c.31.52.61,1,.94,1.54l1,1.5,2,3,.1.14-52.2,55.48,54.8-52c1.28,1.67,2.67,3.26,4,4.88.78.92,1.63,1.78,2.45,2.67s1.63,1.76,2.51,2.58l2.6,2.51,2.72,2.38c.88.81,1.86,1.53,2.8,2.28l1.41,1.11c.48.37,1,.71,1.47,1.06s.82.59,1.23.89ZM600,829.25c-2.47,0-4.94,0-7.4-.12l-13-141.22h-.34l1.45,140.56A234.2,234.2,0,0,1,530,818.73L543.38,672l1.3.52a53,53,0,0,0,6.88,2,42.33,42.33,0,0,0,7.1.92,35.61,35.61,0,0,0,4.38-.07,23.32,23.32,0,0,0,2.74-.44l-2.41-1c-3.51-1.46-6.85-2.93-10.13-4.49s-6.2-3-9.19-4.68v-.13l-.3,0c-.76-.42-1.5-.85-2.24-1.28q-2.57-1.53-5-3.25-1.87-1.32-3.67-2.76c-.67-.53-1.35-1.08-2-1.63-.41-.36-.84-.7-1.25-1.07l-1.21-1.11c-.8-.75-1.62-1.45-2.37-2.25l-2.3-2.34-2.17-2.45c-.75-.8-1.43-1.66-2.1-2.51s-1.39-1.69-2-2.58c-1.26-1.78-2.59-3.51-3.74-5.38-.09-.15-.19-.29-.29-.44-.49-.77-1-1.53-1.49-2.31l-1.15-2-.5-.85-.82-1.42c-.27-.47-.51-1-.77-1.45l-1.5-2.93c-.53-.95-.94-2-1.41-3l-1.36-3c-.84-2-1.64-4.08-2.45-6.12l-2.15-6.23v0L498.24,601l-.32-1.1-1.63-6.43c-.3-1.06-.48-2.17-.71-3.24l-.68-3.26-.34-1.63c-.11-.55-.21-1.12-.32-1.69l-.63-3.39L493,576.8l-.63-3.34c-.14-.75-.28-1.49-.43-2.23-.2-1.09-.41-2.19-.62-3.29.16.26.33.51.51.77l1.42,2.13c.45.68.91,1.37,1.4,2l2.15,3c.27.37.53.75.81,1.12l3.14,4.07,3.44,4.46,5.42-1.39,2.7-.71c.89-.25,1.77-.54,2.66-.82s1.73-.62,2.61-.93,1.7-.7,2.56-1.05,1.68-.76,2.51-1.15,1.65-.83,2.46-1.27l1.21-.66,1.2-.72,1.19-.71,1.16-.77,1.16-.78,1.13-.82,1.13-.84c.38-.27.73-.58,1.1-.88l1.1-.89c.36-.31.71-.64,1-.95l1.07-1,1-1,1-1,1-1.1c.24-.26.48-.54.71-.83.4-.48.8-1,1.18-1.46.63-.77,1.19-1.65,1.78-2.49s1.08-1.8,1.62-2.71l2.43-4.13-.07-.12-.09-.16c3.21-1.25,6.8-2.7,10.44-4.29a133.92,133.92,0,0,0,18.11-9.3l2.73-1.76c.4,0,.78-.05,1.18-.09.8-.06,1.61-.15,2.42-.23s1.61-.16,2.42-.27,1.6-.18,2.41-.31l2.42-.35,2.43-.41c.81-.13,1.63-.32,2.44-.47s1.63-.32,2.45-.53l2.45-.59,2.47-.7c.82-.21,1.65-.5,2.49-.78s1.65-.53,2.49-.89l2.51-1,5.28-2.12v-5.36c0-2.24.1-4.5.07-6.73s0-4.45-.06-6.67c0-.86,0-1.71-.07-2.56,0-.25,0-.51,0-.77l0-1.14-.08-2.18q0-1.49-.12-3l1.32.38c.84.24,1.71.47,2.62.68a60.14,60.14,0,0,0,9.78,1.54c1.24.09,2.49.16,3.77.16l1.23,0c-.09.2-.18.42-.27.64-.29.7-.57,1.41-.82,2.16a25.67,25.67,0,0,0-1,4.08,21.11,21.11,0,0,0-.16,4.6,18.38,18.38,0,0,0,.66,3.68c.09.34.2.69.32,1l.06.18a18.19,18.19,0,0,0,2.34,4.48,18.86,18.86,0,0,0,2.29,2.69c-1.08.8-2.16,1.61-3.21,2.46-1.47,1.18-2.89,2.41-4.27,3.67-.7.63-1.36,1.29-2,1.93s-1.32,1.32-2,2c-1.27,1.34-2.52,2.72-3.7,4.13s-2.33,2.86-3.41,4.34c-.54.73-1.08,1.47-1.59,2.22s-1,1.49-1.53,2.26-1,1.51-1.45,2.29-1,1.53-1.39,2.31c-.91,1.55-1.77,3.13-2.6,4.7l-1.21,2.38-1.15,2.4c-.75,1.61-1.49,3.22-2.17,4.85s-1.34,3.25-2,4.88-1.25,3.29-1.82,4.94-1.13,3.31-1.69,5c.89-1.5,1.76-3,2.69-4.48s1.84-2.94,2.78-4.4,1.91-2.88,2.92-4.28,2-2.8,3-4.17l1.57-2,1.62-2c1.09-1.3,2.2-2.59,3.35-3.83.55-.63,1.14-1.23,1.72-1.84s1.17-1.21,1.77-1.79,1.19-1.17,1.8-1.74,1.22-1.12,1.85-1.66c1.23-1.1,2.51-2.15,3.8-3.15s2.62-2,4-2.87l2-1.33c.7-.42,1.38-.85,2.08-1.25,1.39-.81,2.79-1.58,4.23-2.29.89-.45,1.79-.86,2.69-1.27l1.67-.74q2.22-.95,4.48-1.77c1.52-.55,3-1.08,4.6-1.56l.54-.17c1.37-.43,2.76-.83,4.15-1.22l29.37-8.26-3.25-.9-13.92-3.88-14.4-4-1.35-.2c-.89-.15-1.74-.33-2.51-.54a13.23,13.23,0,0,1-2.83-1.14,3.54,3.54,0,0,1-1.16-.94.7.7,0,0,1-.1-.19,1.43,1.43,0,0,1,0-.28,4.67,4.67,0,0,1,.29-1.74,10.55,10.55,0,0,1,.76-1.75c.18-.35.38-.7.6-1.06a22.76,22.76,0,0,1,2.31-3,34.17,34.17,0,0,1,3-2.93l9.79-10.25-6.9-2.62-5.19-2c-.84-.33-1.69-.64-2.54-1-.48-.18-1-.37-1.42-.57-1.33-.51-2.64-1.1-4-1.67s-2.63-1.2-3.93-1.86l-1.84-.92-.11,0-2-1c-1.6-.85-3.2-1.74-4.8-2.65q-5.1-2.92-10.06-6.22l-.36-.24c-2.12-1.4-4.22-2.86-6.3-4.35q-4.2-3-8.29-6.19c-1.57-1.23-3.11-2.48-4.66-3.74-.79-.65-1.58-1.3-2.36-2q-1.74-1.46-3.43-2.94l-1.11-1c-.75-.68-1.5-1.35-2.21-2l-.2.19.1-.48.47-2,.49-2c.17-.65.36-1.3.54-1.95s.35-1.3.55-1.95.4-1.35.61-2,.37-1.24.57-1.86c.42-1.28.81-2.59,1.26-3.87.17-.52.35-1,.53-1.56l3.52,1.4,21.2,8.39,5.67,2.24,19.59,7.76,5.67,2.25L676.7,464l5.65,2.23,25.7,10.18.12,3.13.2,5.51.47,12.58.49,15.13.18,5.69.2,6.33q.25,8.7.44,17.4c.05,1.9.09,3.81.12,5.71,0,1.34.06,2.68.08,4q.14,6.78.16,13.51c0,2.18,0,4.35,0,6.49v.21c0,1.83,0,3.67-.12,5.44,0,.36,0,.72,0,1.07,0,.53-.06,1-.1,1.5s-.09.94-.1,1.05v.09l-.06.2,0,.11,0,0s0,.08,0,.11l-.08.27c-.12.38-.28.83-.44,1.27-.69,1.84-1.56,3.82-2.47,5.77-1.8,3.84-3.79,7.71-5.84,11.54,0,.09-.09.18-.14.27-.81,1.49-1.64,3-2.46,4.48-3.51,6.3-7.2,12.53-11,18.64-.67,1.08-1.36,2.14-2,3.21-1,1.5-1.93,3-2.9,4.47-3.25,4.91-6.59,9.75-10.07,14.46q-3.27,4.41-6.72,8.64l-1.48,1.79c-.57.68-1.14,1.35-1.72,2-2.3,2.65-4.67,5.21-7.13,7.61h0l-1.74,1.56.27,2.59,16,148.4A235.75,235.75,0,0,1,600,829.25Zm13.74-346.78,1.15,1q2.4,2.07,4.86,4.08c1.66,1.34,3.35,2.67,5,4a52.62,52.62,0,0,1-5.67-1.34c-1.89-.55-3.56-1.14-4.92-1.67-.09-1.2-.19-2.4-.28-3.61C613.87,484.09,613.8,483.28,613.74,482.47Zm78.64,328.06c-1.88.8-3.77,1.58-5.66,2.32l-23-141.4c1.44-1.34,2.82-2.72,4.18-4.12l37.36,60.93-34.44-64c.32-.34.64-.69,1-1,3.13-3.45,6.11-7,9-10.59,3.45-4.3,6.75-8.69,10-13.14l58.16,55.19L693.47,635.7c1.25-1.77,2.48-3.54,3.7-5.33q6.39-9.39,12.27-19.11l72.95,39.58-70.51-43.62.08-.13c2.34-4,4.61-8,6.77-12.22,1.08-2.11,2.13-4.24,3.13-6.62.24-.6.49-1.22.74-1.91l.19-.54.2-.7.14-.49,0-.09,0-.06.05-.22.07-.36c.21-1,.27-1.62.36-2.32,0-.26.06-.52.09-.77l79.69,19L724.13,576c.07-1.16.13-2.31.18-3.46.12-2.31.21-4.61.29-6.9.15-4.58.26-9.14.35-13.71,0-1.49.06-3,.08-4.46l85.58-2.44-85.49-2.43q.14-9,.21-18l.07-10.95,78-23.4-78,18.63.07-11.56V474.5l56.89-35.19L725.5,470.17v0l-.12-5.9-5.47-2.16-24.49-9.7,48.24-51.27a238.82,238.82,0,0,1,24.17,358.33A236.57,236.57,0,0,1,692.38,810.53Z"/><polygon class="cls-1" points="742.71 345.54 748.09 334.69 728.55 324.91 760.86 259.84 748.98 253.89 711.29 329.81 742.71 345.54"/><polygon class="cls-1" points="711.34 316.45 690.63 309.51 713.54 240.54 700.95 236.32 674.22 316.78 707.52 327.95 711.34 316.45"/><path class="cls-1" d="M689.36,920.77c17.86-26.58,15.07-34,15.07-34s-30.83,15.75-39.69,46.81c17.79-18.3,18.42-19.37,21.24-21.49-8.75,11.67-19.29,24.77-19.29,24.77S670.49,939.21,689.36,920.77Z"/><path class="cls-1" d="M636.44,309.43l4.82-14.8,16.06,2.74-.3,15.56,13.2,2.25.8-85.91L651.87,226l-27.45,81.36Zm21.85-67.08-.84,43.37-12.61-2.15Z"/><polygon class="cls-1" points="582.66 201.23 600 192.07 617.34 201.23 614.03 181.83 628.06 168.09 608.67 165.26 600 147.61 591.33 165.26 571.94 168.09 585.97 181.83 582.66 201.23"/><path class="cls-1" d="M622.47,251.41l.13-8.24c.22-13.57-6.41-21.44-19.44-21.65s-19.91,7.43-20.13,21l-.71,44.1c-.22,13.58,6.41,21.44,19.44,21.65s19.91-7.43,20.13-21l.18-11.27-12.55-.2-.19,12.11c-.1,6.06-2.79,8.2-7,8.13s-6.84-2.29-6.74-8.35l.73-45.8c.1-6.06,2.8-8.31,7-8.25s6.83,2.42,6.74,8.48l-.15,9.08Z"/><path class="cls-1" d="M588,921.79a168.74,168.74,0,0,0-.78,31c.72,8.43,1.46,16.92,3,31.29,1.49,10.9.94,7.82,1.58,13.91a3.91,3.91,0,0,0-3.62,4.11c.55,2.36,4.82,3.38,4.82,3.38-1.22,3.62-.77,9.37,1.11,16.63,1.4,6.27.55,7.47-1.11,10.9-4,2.59-.75,4.41-.75,4.41,6.53,3.41,11.76.6,15.94-1.17,0-2.8-.49-4.2-.63-14.64-.25-9-.73-18.18-.94-21.09a3.36,3.36,0,0,0-1.89-1.52c-4-32.17,1.46-57.93,8.31-80.24-5-11.72-1.74-23,.1-29.62C592.74,894.78,589,914.7,588,921.79Zm15.56,1a3.46,3.46,0,1,1,4-2.83A3.46,3.46,0,0,1,603.6,922.77Z"/><path class="cls-1" d="M490.66,917.49c4-13.59-8.61-12-8.61-12-8.24,8.11,1,13.12,5.11,14.51.55.84,7.85,9.13,15.48,18.35-16.15-4.12-47-19.87-70.62-33.52-19.1-14-30.59-32.68-34.87-39.72.48-3.79-2.76-13-6.48-10.39s.46,9.41,3.34,11c-.19,2.4,7.21,11.7,12.38,21.26-11.42-10.46-26.92-25.17-34.6-33.08s-22.54-25.95-28.7-34.65c-6.23-8.93-9.72-14.43-17.11-28.13-8.33-26.59-4.59-46.06-2.35-58.77s5.12-14.78,7.59-18.76c.2-1.64-1.4-5.46-4.46-4.64-2.76,1-3.2,6.32-3.88,11.74-10.14,26.92-5.35,50.1-4.85,56.66-7.89-15.86-15.87-36.35-22.22-55.87s-11-52.58-12.15-60.22c.73-6.74-1.45-12.18-4.55-9.27s1.2,11.5,1.2,11.5,2.51,24,7.8,44.91S301.72,751.54,312,773.3s31.53,53.14,31.53,53.14a237.78,237.78,0,0,0-25.32-15.18,14.74,14.74,0,0,0-1.3-3.35c-4.91-9.38-13.57-5.73-13.57-5.73s7.91.1,8.7,4.57c-7.08-5.93-13-.4-13-.4s-2.57,9.08,4.68,11.79,13.88-3.08,13.88-3.08,7.67,3.88,14.8,8.46c20.66,12.45,28.13,24,46,43.53-48.33-27.68-77.25-29.28-85.47-29.53C304.3,854.3,334,876.74,360.42,884s36.47,3.68,36.47,3.68S373,877.14,364.22,873.13c7.89-1.48,27.32,8.24,32.07,11.3s22.84,16.42,22.84,16.42S451,923,473.88,932.72a510.78,510.78,0,0,0,53.54,18.57c-4.63-.64-25.44.57-41,5.17s-14,6.53-14,6.53c30.66,3.85,56.56-7.86,62.3-8.81,3-.7,25.85,3.39,32.79,3.8,2.88,0,11.44-4.06,11.44-4.06-38.68-3-55-8.8-70.08-15.65C495.13,926.7,490.66,917.49,490.66,917.49Z"/><path class="cls-1" d="M509.49,322l-2.15-15.42L523,302l6.55,14.11,12.84-3.82-36.93-77.48-18.63,5.54,11,85.18ZM518,291.44l-12.26,3.65-6-43Z"/><path class="cls-1" d="M535.26,933.55c-8.86-31.07-39.69-46.82-39.69-46.82s-2.79,7.46,15.07,34c18.87,18.45,22.68,16.06,22.68,16.06s-10.54-13.11-19.3-24.78C516.84,914.17,517.47,915.24,535.26,933.55Z"/><polygon class="cls-1" points="497.52 325.92 492.36 314.96 472.62 324.34 441.66 258.62 429.66 264.32 465.78 340.99 497.52 325.92"/><path class="cls-1" d="M444,946.12c12.53,1.89,29.32-.18,32.27-2.79-8.74-10.89-41.08-16.26-41.08-16.26-64-7.2-80.28,2.82-80.28,2.82,56.84,33.22,98.9,26.59,114.53,19C460.2,949.92,444.82,946.32,444,946.12Z"/><path class="cls-1" d="M466.17,908s.17-3.17-9.48-27c-21.3-51-59.29-71.74-59.29-71.74s-1.08,30.7,22.28,63.36,33.38,34,41.16,34.12c-17-15.76-32.75-43.05-33.24-43.9C459.6,906.22,466.17,908,466.17,908Z"/><polygon class="cls-1" points="460.03 344 453.35 333.91 434.27 346.68 420.55 326 435.71 315.86 429.02 305.78 413.86 315.92 400.82 296.25 419.9 283.49 413.21 273.4 383.08 293.55 429.9 364.15 460.03 344"/><path class="cls-1" d="M410.36,382.69c9.59-8.86,9.32-19.17.17-29.15L367,306l-9.23,8.54,44.13,48.13c4.09,4.46,3.6,7.87.5,10.75s-6.53,3.07-10.62-1.39l-44.13-48.13-9.77,9,43.57,47.51C390.57,390.46,400.77,391.56,410.36,382.69Z"/><path class="cls-1" d="M409,909.14c2.32-7.25-13.42-19.08-22.1-5.64,0,0-1.77,9.46,6,11.33C402.54,917.13,406.68,916.45,409,909.14Z"/><path class="cls-1" d="M376.74,836.31a7,7,0,0,0-1.49,6.82,10.1,10.1,0,0,0,7.11,7.4,8.33,8.33,0,0,0,9.18-4,5.61,5.61,0,0,0,.69-2.45,8.34,8.34,0,0,0-.7-3.17,11.34,11.34,0,0,0-2.83-4.59,4.87,4.87,0,0,0-4.41-1.15,13.81,13.81,0,0,1,6.65-.72A11,11,0,0,0,376.74,836.31Z"/><path class="cls-1" d="M350.93,418c10.62,8.39,20.86,7.85,28.92-2.43s6.16-20.42-4.45-28.81l-8.83-7-7.75,9.9,9.48,7.49c4.74,3.75,4.81,7.2,2.2,10.53s-6,4.08-10.7.33L324,379.76c-4.74-3.74-4.9-7.26-2.29-10.6s6.06-4,10.8-.26l7.11,5.62,7.76-9.9-6.45-5.1C330.26,351.13,320,351.67,312,362s-6.17,20.42,4.45,28.81Z"/><path class="cls-1" d="M369,834.45a150.59,150.59,0,0,0-30.25-107.68A129.49,129.49,0,0,0,360.9,830.64q-1.42-9.75-2.86-19.51l.11.28Q363.57,822.92,369,834.45Z"/><path class="cls-1" d="M289.12,437.28c21.05,11.85,36.58-9.28,51.74-.74,5.25,3,5.85,6.35,3.78,10.06s-5.25,4.95-10.51,2l-5.26-3-6.14,11,4.53,2.55c11.78,6.63,21.82,4.51,28.2-6.91s2.93-21.13-8.85-27.77c-21.05-11.85-36.57,9.28-51.73.75-5.27-3-6.09-6.21-4-9.9s5.25-4.69,10.51-1.73l3.06,1.72,6.13-11-2.31-1.3c-11.79-6.64-21.77-4.62-28.08,6.69S277.33,430.64,289.12,437.28Z"/><polygon class="cls-1" points="343.19 473.07 331.88 468.83 323.86 490.4 300.69 481.7 307.07 464.56 295.77 460.32 289.39 477.46 267.35 469.18 275.38 447.62 264.07 443.37 251.4 477.43 330.51 507.13 343.19 473.07"/><path class="cls-1" d="M318.21,671.55c-.82-9.15-2.2-18.42-6.21-26.67-5.87,6.61-8.22,15.57-10.38,24.16-1.51,6-3,12-3.39,18.1-.5,8.3,1.08,16.56,2.66,24.72,1.09,5.58,2.19,11.23,4.53,16.4a62.77,62.77,0,0,0,3.82-17.5,69.18,69.18,0,0,1-.16,15.29C319,710.18,319.87,690.23,318.21,671.55Z"/><path class="cls-1" d="M303,783.17a3.87,3.87,0,0,0,3.21-2.51,5.88,5.88,0,0,0-.47-3.58,151.72,151.72,0,0,0-54.81-72.32A141.22,141.22,0,0,0,282,769.32c4.69,5.48,10,10.75,16.8,13.21A8.73,8.73,0,0,0,303,783.17Z"/><path class="cls-1" d="M282.27,640.88a5.74,5.74,0,0,0,5-2.39,16.27,16.27,0,0,0,2.44-5.21c6.63-20.5,9.63-42.37,7.16-63.8l0-.47c-6,9.63-11.58,19.56-15.44,30.22s-5.92,22.13-4.62,33.4a14,14,0,0,0,1.35,5.15A5.68,5.68,0,0,0,282.27,640.88Z"/><polygon class="cls-1" points="277.94 541.79 289.16 547.71 287.01 535.17 296.1 526.29 283.55 524.45 277.94 513.03 272.33 524.45 259.78 526.29 268.87 535.17 266.72 547.71 277.94 541.79"/><path class="cls-1" d="M275.42,701.44a5.28,5.28,0,0,0-5.6,3,6.2,6.2,0,0,0,.24,4.4,7.53,7.53,0,0,0,4.39,4.56,4.66,4.66,0,0,0,5.57-2.14,5.06,5.06,0,0,0-1.09-5.24A8.6,8.6,0,0,0,277,704.4a6.58,6.58,0,0,1,4.05.59A9,9,0,0,0,275.42,701.44Z"/><path class="cls-1" d="M260.27,656.11a217.42,217.42,0,0,0,12.54,32.12,88.24,88.24,0,0,0-20.3-65.94,85.63,85.63,0,0,0,14.94,67.54A319.82,319.82,0,0,1,260.27,656.11Z"/></svg>