<svg xmlns="http://www.w3.org/2000/svg" xmlns:xlink="http://www.w3.org/1999/xlink" viewBox="0 0 614 276.22"><defs><style>.cls-1{fill:url(#linear-gradient);}.cls-2{fill:none;}.cls-3,.cls-5,.cls-6{fill:#fff;}.cls-4{fill:#134395;}.cls-5{stroke:#2d2378;}.cls-5,.cls-6{stroke-width:2px;}.cls-6{stroke:#be1622;}</style><linearGradient id="linear-gradient" x1="1" y1="-69.86" x2="613" y2="-69.86" gradientTransform="matrix(1, 0, 0, -1, 0, 157.41)" gradientUnits="userSpaceOnUse"><stop offset="0" stop-color="#e30613"/><stop offset="0.36" stop-color="#cd0f1c"/><stop offset="0.69" stop-color="#be1622"/><stop offset="1" stop-color="#b31921"/></linearGradient></defs><title>Asset 1</title><g id="Layer_2" data-name="Layer 2"><g id="Layer_1-2" data-name="Layer 1"><path class="cls-1" d="M1,276.22v-89s133.59,111.59,337.59,40.57c202.49-70.5,274.41-45,274.41-45v93.41Z"/><path class="cls-2" d="M329.36,234.77c196.19-65.85,274.21-48,283.64-45.3V157.86H1v23C47.84,217.34,167.14,289.22,329.36,234.77Z"/><path class="cls-2" d="M329.36,243.89C167.14,298.34,47.84,220.81,1,181.67v94.55H613V198.59C603.57,195.94,525.55,178,329.36,243.89Z"/><path class="cls-3" d="M329.36,243.89C525.55,178,603.57,195.94,613,198.59v-9.12c-9.43-2.65-87.45-20.55-283.64,45.3C167.14,289.22,47.84,217.34,1,180.83v.84C47.84,220.81,167.14,298.34,329.36,243.89Z"/><path class="cls-3" d="M343,256.46C141.57,327.48,9.65,174,9.65,174v.49S141.57,318.36,343,247.34c200-70.5,271-45,271-45v9.12S543,186,343,256.46Z"/><path class="cls-4" d="M613,0V89S479.41-22.62,275.41,48.4C72.92,118.9,1,93.4,1,93.4V0Z"/><path class="cls-2" d="M284.64,41.45C88.45,107.29,10.43,89.39,1,86.74v31.62H613v-23C566.16,58.88,446.86-13,284.64,41.45Z"/><path class="cls-2" d="M284.64,32.33C446.86-22.12,566.16,55.4,613,94.55V0H1V77.63C10.43,80.27,88.45,98.18,284.64,32.33Z"/><path class="cls-3" d="M284.64,32.33C88.45,98.18,10.43,80.27,1,77.63v9.11c9.43,2.65,87.45,20.55,283.64-45.29C446.86-13,566.16,58.88,613,95.39v-.84C566.16,55.4,446.86-22.12,284.64,32.33Z"/><path class="cls-3" d="M271,19.76c201.45-71,333.37,82.5,333.37,82.5v-.49S472.43-42.14,271,28.88C71,99.37,0,73.88,0,73.88V64.76S71,90.26,271,19.76Z"/><polygon class="cls-5" points="51.29 7.34 59.52 24 77.9 26.67 64.59 39.64 67.74 57.95 51.29 49.3 34.85 57.95 37.99 39.64 24.69 26.67 43.07 24 51.29 7.34"/><polygon class="cls-6" points="562.29 216.98 570.51 233.64 588.9 236.31 575.6 249.28 578.74 267.59 562.29 258.95 545.85 267.59 548.99 249.28 535.69 236.31 554.07 233.64 562.29 216.98"/></g></g></svg>