<?xml version="1.0" standalone="no"?>
<!DOCTYPE svg PUBLIC "-//W3C//DTD SVG 20010904//EN"
 "http://www.w3.org/TR/2001/REC-SVG-20010904/DTD/svg10.dtd">
<svg version="1.0" xmlns="http://www.w3.org/2000/svg"
 width="1276.000000pt" height="1274.000000pt" viewBox="0 0 1276.000000 1274.000000"
 preserveAspectRatio="xMidYMid meet">

<g transform="translate(0.000000,1274.000000) scale(0.100000,-0.100000)"
fill="#000000" stroke="none">
<path d="M0 6370 l0 -6370 6380 0 6380 0 0 6370 0 6370 -6380 0 -6380 0 0
-6370z m8055 5933 c87 -46 155 -153 155 -243 0 -37 -24 -114 -61 -196 -48
-107 -63 -141 -109 -249 -23 -55 -50 -118 -60 -140 -10 -22 -61 -143 -115
-269 -53 -126 -110 -258 -126 -293 -16 -35 -29 -66 -29 -69 0 -4 -16 -43 -36
-88 -43 -96 -49 -109 -109 -251 -26 -60 -53 -123 -60 -140 -8 -16 -62 -142
-120 -280 -59 -137 -118 -274 -131 -303 -13 -29 -24 -55 -24 -59 0 -3 -16 -42
-36 -87 -43 -96 -49 -109 -109 -251 -26 -60 -53 -123 -60 -140 -33 -72 -225
-526 -225 -530 0 -3 843 -5 1874 -5 1832 0 1875 0 1920 -19 54 -24 120 -87
141 -137 25 -60 29 -133 10 -187 -9 -26 -77 -152 -152 -280 -75 -127 -161
-275 -191 -327 -30 -52 -65 -111 -77 -130 -12 -19 -56 -93 -97 -165 -80 -137
-424 -726 -748 -1280 -250 -427 -243 -415 -346 -592 -49 -84 -138 -237 -199
-340 -60 -104 -114 -196 -120 -205 -19 -33 -142 -243 -192 -328 -142 -242
-159 -270 -260 -445 -38 -66 -141 -241 -228 -390 -87 -148 -173 -295 -190
-325 -17 -30 -52 -89 -77 -130 -25 -41 -73 -124 -108 -185 -35 -60 -105 -181
-156 -267 -52 -87 -94 -160 -94 -162 0 -2 -19 -35 -42 -72 -23 -38 -110 -186
-193 -329 -83 -143 -191 -327 -240 -410 -49 -82 -103 -175 -120 -205 -17 -30
-92 -158 -167 -285 -74 -126 -146 -250 -160 -275 -131 -231 -487 -833 -510
-862 -35 -45 -114 -85 -185 -94 -105 -13 -227 61 -270 164 -25 59 -23 109 27
552 11 96 24 218 30 270 5 52 19 176 29 275 29 268 59 542 76 700 8 77 19 183
25 235 6 52 28 262 50 465 22 204 53 496 70 650 28 253 38 349 55 517 3 29 10
89 15 133 5 44 14 125 20 180 27 261 51 487 60 559 6 43 7 82 4 87 -3 5 -719
9 -1708 9 l-1702 0 -53 26 c-98 49 -161 164 -148 267 3 23 15 98 27 167 12 69
23 136 25 150 2 14 11 68 20 120 9 52 20 122 25 155 10 61 24 146 34 200 3 17
28 170 56 340 27 171 54 333 59 360 6 28 24 136 41 240 17 105 47 285 66 400
20 116 40 235 44 265 5 30 20 125 35 210 14 85 41 248 60 362 19 114 38 225
41 245 11 69 164 997 174 1053 16 93 49 289 70 425 12 72 25 153 30 180 6 28
60 352 120 720 61 369 112 684 115 700 9 49 31 181 56 330 26 160 48 216 110
268 82 71 -98 66 2229 64 l2105 -2 40 -22z m2448 -5388 c43 -63 77 -121 77
-129 0 -8 -8 -17 -18 -21 -33 -10 -125 -84 -165 -132 -55 -66 -67 -95 -67
-153 0 -87 58 -122 143 -86 31 13 181 111 222 146 40 34 124 79 196 105 110
40 208 38 298 -6 84 -41 167 -124 209 -208 30 -60 32 -72 32 -166 0 -117 -26
-215 -86 -321 -58 -106 -163 -225 -246 -282 -76 -51 -177 -104 -194 -100 -16
3 -164 251 -164 275 0 6 25 23 55 37 76 35 199 121 230 161 37 49 65 121 65
167 0 32 -7 47 -34 74 -58 58 -124 42 -271 -65 -202 -148 -337 -192 -475 -157
-115 30 -208 109 -264 226 -30 62 -31 71 -31 190 0 124 0 126 37 203 40 83
103 170 165 228 77 72 161 128 194 129 9 0 47 -47 92 -115z m-470 -1002 c149
-86 358 -206 462 -267 105 -60 217 -125 250 -144 33 -19 83 -48 110 -64 28
-16 64 -36 82 -45 18 -9 34 -21 36 -27 6 -15 -150 -280 -167 -284 -12 -3 -173
85 -386 211 -47 28 -107 63 -135 78 -27 15 -140 80 -250 143 -110 64 -257 149
-327 188 -70 40 -129 78 -132 84 -2 6 25 62 61 125 87 153 91 159 108 159 9 0
138 -71 288 -157z m-491 -280 c15 -36 231 -508 285 -621 l25 -54 57 6 c31 4
207 22 391 42 184 19 370 38 413 41 73 6 77 5 71 -13 -11 -29 -196 -348 -206
-355 -5 -3 -75 -11 -156 -18 -81 -7 -160 -14 -177 -16 -16 -2 -76 -7 -132 -11
-57 -4 -103 -10 -103 -14 0 -7 27 -65 181 -389 33 -68 59 -125 59 -127 0 -2
-25 -47 -57 -101 -31 -54 -67 -118 -81 -143 -81 -149 -186 -320 -196 -320 -6
0 -38 5 -71 10 -33 6 -87 15 -120 21 -33 5 -67 12 -76 15 -11 3 -24 -8 -40
-33 -50 -83 -239 -414 -239 -418 0 -7 116 -152 153 -192 37 -40 35 -48 -41
-178 -32 -55 -105 -179 -161 -277 l-102 -176 -72 -11 c-40 -6 -103 -16 -142
-21 -94 -13 -186 -26 -332 -46 -67 -10 -120 -20 -118 -24 2 -3 28 -19 57 -34
117 -61 373 -214 381 -227 10 -16 -140 -289 -160 -289 -12 0 -22 6 -295 163
-769 443 -852 491 -891 512 -20 10 -39 26 -42 33 -3 8 19 55 49 106 29 50 84
145 121 211 115 202 171 272 264 330 95 59 205 73 317 40 115 -33 237 -132
287 -232 30 -60 52 -171 43 -223 -3 -22 -4 -40 0 -40 3 0 112 18 242 41 131
22 267 45 305 51 43 7 67 15 67 23 0 8 -3 15 -8 17 -4 2 -46 53 -93 113 -47
61 -186 238 -309 395 -123 157 -279 356 -347 443 l-124 158 44 77 c124 218
105 201 208 182 30 -5 140 -21 244 -36 105 -14 298 -41 430 -59 373 -53 605
-85 615 -85 5 0 -2 24 -14 53 -61 135 -299 643 -306 650 -4 5 -63 4 -131 -2
-68 -6 -189 -15 -269 -21 -172 -13 -244 -19 -324 -26 l-59 -6 6 29 c3 15 25
62 50 103 24 41 64 109 88 150 l44 75 150 12 c83 6 180 12 217 12 37 1 70 6
73 11 4 6 -28 81 -70 168 -43 86 -86 176 -97 199 l-19 42 77 133 c43 73 87
150 98 170 27 48 49 48 68 1z m-1756 -3537 c76 -20 171 -74 236 -134 103 -96
148 -229 128 -377 -10 -68 -58 -182 -137 -319 -16 -28 -23 -51 -18 -53 10 -3
93 -51 311 -179 49 -29 98 -56 107 -60 9 -3 17 -12 17 -19 0 -23 -154 -285
-167 -285 -7 0 -68 32 -135 71 -68 39 -244 141 -393 227 -148 85 -308 177
-355 204 -47 28 -145 84 -217 126 -73 42 -133 80 -133 84 0 5 37 73 82 151 45
78 86 151 92 162 89 166 163 264 240 321 113 84 227 111 342 80z"/>
<path d="M8916 3689 c4 -8 49 -63 99 -124 50 -60 102 -125 115 -143 19 -26 26
-30 36 -20 12 13 134 223 134 231 0 5 -20 9 -205 37 -71 11 -143 23 -159 26
-22 5 -27 3 -20 -7z"/>
<path d="M8122 2684 c-32 -25 -112 -134 -112 -152 0 -10 280 -172 297 -172 14
0 71 117 79 162 8 49 0 79 -32 118 -61 72 -170 93 -232 44z"/>
<path d="M7584 1724 c-21 -15 -49 -39 -62 -53 -25 -29 -86 -131 -81 -135 2 -2
31 -19 64 -38 33 -20 84 -50 113 -67 29 -17 55 -31 58 -31 3 0 19 -9 34 -20
l28 -20 21 29 c43 60 71 135 71 189 0 79 -26 116 -105 153 -55 26 -95 24 -141
-7z"/>
</g>
</svg>
