<svg id="Layer_1" data-name="Layer 1" xmlns="http://www.w3.org/2000/svg" xmlns:xlink="http://www.w3.org/1999/xlink" viewBox="0 0 744.87 45.66"><defs><style>.cls-1,.cls-4{fill:none;}.cls-2{clip-path:url(#clip-path);}.cls-3{fill:#fff;}.cls-4{stroke:#000;stroke-miterlimit:10;stroke-width:4px;}</style><clipPath id="clip-path"><polygon class="cls-1" points="-3.05 3.67 747.22 1.81 748.4 43.4 -1.88 43.44 -3.05 3.67"/></clipPath></defs><title>Artboard 7</title><rect x="0.47" y="2.22" width="744.4" height="41.22"/><g class="cls-2"><polygon class="cls-3" points="362.83 56.23 364.44 51.35 369.66 51.35 365.44 48.32 367.05 43.44 362.83 46.46 358.61 43.44 360.23 48.32 356.01 51.35 361.22 51.35 362.83 56.23"/><polygon class="cls-3" points="381.94 56.23 383.56 51.35 388.77 51.35 384.55 48.32 386.16 43.44 381.94 46.46 377.73 43.44 379.34 48.32 375.12 51.35 380.33 51.35 381.94 56.23"/><polygon class="cls-3" points="401.06 56.23 402.67 51.35 407.88 51.35 403.66 48.32 405.28 43.44 401.06 46.46 396.84 43.44 398.45 48.32 394.23 51.35 399.45 51.35 401.06 56.23"/><polygon class="cls-3" points="420.17 56.23 421.78 51.35 427 51.35 422.78 48.32 424.39 43.44 420.17 46.46 415.95 43.44 417.56 48.32 413.34 51.35 418.56 51.35 420.17 56.23"/><polygon class="cls-3" points="439.28 56.23 440.89 51.35 446.11 51.35 441.89 48.32 443.5 43.44 439.28 46.46 435.06 43.44 436.67 48.32 432.46 51.35 437.67 51.35 439.28 56.23"/><polygon class="cls-3" points="458.39 56.23 460 51.35 465.22 51.35 461 48.32 462.61 43.44 458.39 46.46 454.18 43.44 455.79 48.32 451.57 51.35 456.78 51.35 458.39 56.23"/><polygon class="cls-3" points="477.51 56.23 479.12 51.35 484.33 51.35 480.11 48.32 481.73 43.44 477.51 46.46 473.29 43.44 474.9 48.32 470.68 51.35 475.89 51.35 477.51 56.23"/><polygon class="cls-3" points="496.62 56.23 498.23 51.35 503.44 51.35 499.23 48.32 500.84 43.44 496.62 46.46 492.4 43.44 494.01 48.32 489.79 51.35 495.01 51.35 496.62 56.23"/><polygon class="cls-3" points="515.73 56.23 517.34 51.35 522.56 51.35 518.34 48.32 519.95 43.44 515.73 46.46 511.51 43.44 513.12 48.32 508.9 51.35 514.12 51.35 515.73 56.23"/><polygon class="cls-3" points="534.84 56.23 536.45 51.35 541.67 51.35 537.45 48.32 539.06 43.44 534.84 46.46 530.62 43.44 532.24 48.32 528.02 51.35 533.23 51.35 534.84 56.23"/><polygon class="cls-3" points="553.96 56.23 555.57 51.35 560.78 51.35 556.56 48.32 558.17 43.44 553.96 46.46 549.74 43.44 551.35 48.32 547.13 51.35 552.34 51.35 553.96 56.23"/><polygon class="cls-3" points="573.07 56.23 574.68 51.35 579.89 51.35 575.67 48.32 577.29 43.44 573.07 46.46 568.85 43.44 570.46 48.32 566.24 51.35 571.46 51.35 573.07 56.23"/><polygon class="cls-3" points="592.18 56.23 593.79 51.35 599 51.35 594.79 48.32 596.4 43.44 592.18 46.46 587.96 43.44 589.57 48.32 585.35 51.35 590.57 51.35 592.18 56.23"/><polygon class="cls-3" points="611.29 56.23 612.9 51.35 618.12 51.35 613.9 48.32 615.51 43.44 611.29 46.46 607.07 43.44 608.68 48.32 604.47 51.35 609.68 51.35 611.29 56.23"/><polygon class="cls-3" points="630.4 56.23 632.01 51.35 637.23 51.35 633.01 48.32 634.62 43.44 630.4 46.46 626.18 43.44 627.8 48.32 623.58 51.35 628.79 51.35 630.4 56.23"/><polygon class="cls-3" points="649.52 56.23 651.13 51.35 656.34 51.35 652.12 48.32 653.74 43.44 649.52 46.46 645.3 43.44 646.91 48.32 642.69 51.35 647.9 51.35 649.52 56.23"/><polygon class="cls-3" points="668.63 56.23 670.24 51.35 675.45 51.35 671.24 48.32 672.85 43.44 668.63 46.46 664.41 43.44 666.02 48.32 661.8 51.35 667.02 51.35 668.63 56.23"/><polygon class="cls-3" points="687.74 56.23 689.35 51.35 694.57 51.35 690.35 48.32 691.96 43.44 687.74 46.46 683.52 43.44 685.13 48.32 680.91 51.35 686.13 51.35 687.74 56.23"/><polygon class="cls-3" points="706.85 56.23 708.46 51.35 713.68 51.35 709.46 48.32 711.07 43.44 706.85 46.46 702.63 43.44 704.25 48.32 700.03 51.35 705.24 51.35 706.85 56.23"/><polygon class="cls-3" points="725.97 56.23 727.58 51.35 732.79 51.35 728.57 48.32 730.18 43.44 725.97 46.46 721.75 43.44 723.36 48.32 719.14 51.35 724.35 51.35 725.97 56.23"/><polygon class="cls-3" points="745.08 56.23 746.69 51.35 751.9 51.35 747.68 48.32 749.3 43.44 745.08 46.46 740.86 43.44 742.47 48.32 738.25 51.35 743.47 51.35 745.08 56.23"/><polygon class="cls-3" points="374.55 43.44 376.16 38.55 381.38 38.55 377.16 35.53 378.77 30.64 374.55 33.66 370.33 30.64 371.94 35.53 367.73 38.55 372.94 38.55 374.55 43.44"/><polygon class="cls-3" points="393.66 43.44 395.28 38.55 400.49 38.55 396.27 35.53 397.88 30.64 393.66 33.66 389.45 30.64 391.06 35.53 386.84 38.55 392.05 38.55 393.66 43.44"/><polygon class="cls-3" points="412.78 43.44 414.39 38.55 419.6 38.55 415.38 35.53 417 30.64 412.78 33.66 408.56 30.64 410.17 35.53 405.95 38.55 411.17 38.55 412.78 43.44"/><polygon class="cls-3" points="431.89 43.44 433.5 38.55 438.71 38.55 434.5 35.53 436.11 30.64 431.89 33.66 427.67 30.64 429.28 35.53 425.06 38.55 430.28 38.55 431.89 43.44"/><polygon class="cls-3" points="451 43.44 452.61 38.55 457.83 38.55 453.61 35.53 455.22 30.64 451 33.66 446.78 30.64 448.39 35.53 444.18 38.55 449.39 38.55 451 43.44"/><polygon class="cls-3" points="470.11 43.44 471.73 38.55 476.94 38.55 472.72 35.53 474.33 30.64 470.11 33.66 465.89 30.64 467.51 35.53 463.29 38.55 468.5 38.55 470.11 43.44"/><polygon class="cls-3" points="489.23 43.44 490.84 38.55 496.05 38.55 491.83 35.53 493.44 30.64 489.23 33.66 485.01 30.64 486.62 35.53 482.4 38.55 487.61 38.55 489.23 43.44"/><polygon class="cls-3" points="508.34 43.44 509.95 38.55 515.16 38.55 510.94 35.53 512.56 30.64 508.34 33.66 504.12 30.64 505.73 35.53 501.51 38.55 506.73 38.55 508.34 43.44"/><polygon class="cls-3" points="527.45 43.44 529.06 38.55 534.28 38.55 530.06 35.53 531.67 30.64 527.45 33.66 523.23 30.64 524.84 35.53 520.62 38.55 525.84 38.55 527.45 43.44"/><polygon class="cls-3" points="546.56 43.44 548.17 38.55 553.39 38.55 549.17 35.53 550.78 30.64 546.56 33.66 542.34 30.64 543.96 35.53 539.74 38.55 544.95 38.55 546.56 43.44"/><polygon class="cls-3" points="565.67 43.44 567.29 38.55 572.5 38.55 568.28 35.53 569.89 30.64 565.67 33.66 561.46 30.64 563.07 35.53 558.85 38.55 564.06 38.55 565.67 43.44"/><polygon class="cls-3" points="584.79 43.44 586.4 38.55 591.61 38.55 587.39 35.53 589 30.64 584.79 33.66 580.57 30.64 582.18 35.53 577.96 38.55 583.17 38.55 584.79 43.44"/><polygon class="cls-3" points="603.9 43.44 605.51 38.55 610.73 38.55 606.51 35.53 608.12 30.64 603.9 33.66 599.68 30.64 601.29 35.53 597.07 38.55 602.29 38.55 603.9 43.44"/><polygon class="cls-3" points="623.01 43.44 624.62 38.55 629.84 38.55 625.62 35.53 627.23 30.64 623.01 33.66 618.79 30.64 620.4 35.53 616.18 38.55 621.4 38.55 623.01 43.44"/><polygon class="cls-3" points="642.12 43.44 643.74 38.55 648.95 38.55 644.73 35.53 646.34 30.64 642.12 33.66 637.9 30.64 639.52 35.53 635.3 38.55 640.51 38.55 642.12 43.44"/><polygon class="cls-3" points="661.24 43.44 662.85 38.55 668.06 38.55 663.84 35.53 665.45 30.64 661.24 33.66 657.02 30.64 658.63 35.53 654.41 38.55 659.62 38.55 661.24 43.44"/><polygon class="cls-3" points="680.35 43.44 681.96 38.55 687.17 38.55 682.96 35.53 684.57 30.64 680.35 33.66 676.13 30.64 677.74 35.53 673.52 38.55 678.74 38.55 680.35 43.44"/><polygon class="cls-3" points="699.46 43.44 701.07 38.55 706.29 38.55 702.07 35.53 703.68 30.64 699.46 33.66 695.24 30.64 696.85 35.53 692.63 38.55 697.85 38.55 699.46 43.44"/><polygon class="cls-3" points="718.57 43.44 720.18 38.55 725.4 38.55 721.18 35.53 722.79 30.64 718.57 33.66 714.35 30.64 715.97 35.53 711.75 38.55 716.96 38.55 718.57 43.44"/><polygon class="cls-3" points="737.68 43.44 739.3 38.55 744.51 38.55 740.29 35.53 741.9 30.64 737.68 33.66 733.47 30.64 735.08 35.53 730.86 38.55 736.07 38.55 737.68 43.44"/><polygon class="cls-3" points="362.83 29.43 364.44 24.54 369.66 24.54 365.44 21.52 367.05 16.63 362.83 19.65 358.61 16.63 360.23 21.52 356.01 24.54 361.22 24.54 362.83 29.43"/><polygon class="cls-3" points="381.94 29.43 383.56 24.54 388.77 24.54 384.55 21.52 386.16 16.63 381.94 19.65 377.73 16.63 379.34 21.52 375.12 24.54 380.33 24.54 381.94 29.43"/><polygon class="cls-3" points="401.06 29.43 402.67 24.54 407.88 24.54 403.66 21.52 405.28 16.63 401.06 19.65 396.84 16.63 398.45 21.52 394.23 24.54 399.45 24.54 401.06 29.43"/><polygon class="cls-3" points="420.17 29.43 421.78 24.54 427 24.54 422.78 21.52 424.39 16.63 420.17 19.65 415.95 16.63 417.56 21.52 413.34 24.54 418.56 24.54 420.17 29.43"/><polygon class="cls-3" points="439.28 29.43 440.89 24.54 446.11 24.54 441.89 21.52 443.5 16.63 439.28 19.65 435.06 16.63 436.67 21.52 432.46 24.54 437.67 24.54 439.28 29.43"/><polygon class="cls-3" points="458.39 29.43 460 24.54 465.22 24.54 461 21.52 462.61 16.63 458.39 19.65 454.18 16.63 455.79 21.52 451.57 24.54 456.78 24.54 458.39 29.43"/><polygon class="cls-3" points="477.51 29.43 479.12 24.54 484.33 24.54 480.11 21.52 481.73 16.63 477.51 19.65 473.29 16.63 474.9 21.52 470.68 24.54 475.89 24.54 477.51 29.43"/><polygon class="cls-3" points="496.62 29.43 498.23 24.54 503.44 24.54 499.23 21.52 500.84 16.63 496.62 19.65 492.4 16.63 494.01 21.52 489.79 24.54 495.01 24.54 496.62 29.43"/><polygon class="cls-3" points="515.73 29.43 517.34 24.54 522.56 24.54 518.34 21.52 519.95 16.63 515.73 19.65 511.51 16.63 513.12 21.52 508.9 24.54 514.12 24.54 515.73 29.43"/><polygon class="cls-3" points="534.84 29.43 536.45 24.54 541.67 24.54 537.45 21.52 539.06 16.63 534.84 19.65 530.62 16.63 532.24 21.52 528.02 24.54 533.23 24.54 534.84 29.43"/><polygon class="cls-3" points="553.96 29.43 555.57 24.54 560.78 24.54 556.56 21.52 558.17 16.63 553.96 19.65 549.74 16.63 551.35 21.52 547.13 24.54 552.34 24.54 553.96 29.43"/><polygon class="cls-3" points="573.07 29.43 574.68 24.54 579.89 24.54 575.67 21.52 577.29 16.63 573.07 19.65 568.85 16.63 570.46 21.52 566.24 24.54 571.46 24.54 573.07 29.43"/><polygon class="cls-3" points="592.18 29.43 593.79 24.54 599 24.54 594.79 21.52 596.4 16.63 592.18 19.65 587.96 16.63 589.57 21.52 585.35 24.54 590.57 24.54 592.18 29.43"/><polygon class="cls-3" points="611.29 29.43 612.9 24.54 618.12 24.54 613.9 21.52 615.51 16.63 611.29 19.65 607.07 16.63 608.68 21.52 604.47 24.54 609.68 24.54 611.29 29.43"/><polygon class="cls-3" points="630.4 29.43 632.01 24.54 637.23 24.54 633.01 21.52 634.62 16.63 630.4 19.65 626.18 16.63 627.8 21.52 623.58 24.54 628.79 24.54 630.4 29.43"/><polygon class="cls-3" points="649.52 29.43 651.13 24.54 656.34 24.54 652.12 21.52 653.74 16.63 649.52 19.65 645.3 16.63 646.91 21.52 642.69 24.54 647.9 24.54 649.52 29.43"/><polygon class="cls-3" points="668.63 29.43 670.24 24.54 675.45 24.54 671.24 21.52 672.85 16.63 668.63 19.65 664.41 16.63 666.02 21.52 661.8 24.54 667.02 24.54 668.63 29.43"/><polygon class="cls-3" points="687.74 29.43 689.35 24.54 694.57 24.54 690.35 21.52 691.96 16.63 687.74 19.65 683.52 16.63 685.13 21.52 680.91 24.54 686.13 24.54 687.74 29.43"/><polygon class="cls-3" points="706.85 29.43 708.46 24.54 713.68 24.54 709.46 21.52 711.07 16.63 706.85 19.65 702.63 16.63 704.25 21.52 700.03 24.54 705.24 24.54 706.85 29.43"/><polygon class="cls-3" points="725.97 29.43 727.58 24.54 732.79 24.54 728.57 21.52 730.18 16.63 725.97 19.65 721.75 16.63 723.36 21.52 719.14 24.54 724.35 24.54 725.97 29.43"/><polygon class="cls-3" points="745.08 29.43 746.69 24.54 751.9 24.54 747.68 21.52 749.3 16.63 745.08 19.65 740.86 16.63 742.47 21.52 738.25 24.54 743.47 24.54 745.08 29.43"/><polygon class="cls-3" points="374.55 16.63 376.16 11.74 381.38 11.74 377.16 8.72 378.77 3.83 374.55 6.85 370.33 3.83 371.94 8.72 367.73 11.74 372.94 11.74 374.55 16.63"/><polygon class="cls-3" points="393.66 16.63 395.28 11.74 400.49 11.74 396.27 8.72 397.88 3.83 393.66 6.85 389.45 3.83 391.06 8.72 386.84 11.74 392.05 11.74 393.66 16.63"/><polygon class="cls-3" points="412.78 16.63 414.39 11.74 419.6 11.74 415.38 8.72 417 3.83 412.78 6.85 408.56 3.83 410.17 8.72 405.95 11.74 411.17 11.74 412.78 16.63"/><polygon class="cls-3" points="431.89 16.63 433.5 11.74 438.71 11.74 434.5 8.72 436.11 3.83 431.89 6.85 427.67 3.83 429.28 8.72 425.06 11.74 430.28 11.74 431.89 16.63"/><polygon class="cls-3" points="451 16.63 452.61 11.74 457.83 11.74 453.61 8.72 455.22 3.83 451 6.85 446.78 3.83 448.39 8.72 444.18 11.74 449.39 11.74 451 16.63"/><polygon class="cls-3" points="470.11 16.63 471.73 11.74 476.94 11.74 472.72 8.72 474.33 3.83 470.11 6.85 465.89 3.83 467.51 8.72 463.29 11.74 468.5 11.74 470.11 16.63"/><polygon class="cls-3" points="489.23 16.63 490.84 11.74 496.05 11.74 491.83 8.72 493.44 3.83 489.23 6.85 485.01 3.83 486.62 8.72 482.4 11.74 487.61 11.74 489.23 16.63"/><polygon class="cls-3" points="508.34 16.63 509.95 11.74 515.16 11.74 510.94 8.72 512.56 3.83 508.34 6.85 504.12 3.83 505.73 8.72 501.51 11.74 506.73 11.74 508.34 16.63"/><polygon class="cls-3" points="527.45 16.63 529.06 11.74 534.28 11.74 530.06 8.72 531.67 3.83 527.45 6.85 523.23 3.83 524.84 8.72 520.62 11.74 525.84 11.74 527.45 16.63"/><polygon class="cls-3" points="546.56 16.63 548.17 11.74 553.39 11.74 549.17 8.72 550.78 3.83 546.56 6.85 542.34 3.83 543.96 8.72 539.74 11.74 544.95 11.74 546.56 16.63"/><polygon class="cls-3" points="565.67 16.63 567.29 11.74 572.5 11.74 568.28 8.72 569.89 3.83 565.67 6.85 561.46 3.83 563.07 8.72 558.85 11.74 564.06 11.74 565.67 16.63"/><polygon class="cls-3" points="584.79 16.63 586.4 11.74 591.61 11.74 587.39 8.72 589 3.83 584.79 6.85 580.57 3.83 582.18 8.72 577.96 11.74 583.17 11.74 584.79 16.63"/><polygon class="cls-3" points="603.9 16.63 605.51 11.74 610.73 11.74 606.51 8.72 608.12 3.83 603.9 6.85 599.68 3.83 601.29 8.72 597.07 11.74 602.29 11.74 603.9 16.63"/><polygon class="cls-3" points="623.01 16.63 624.62 11.74 629.84 11.74 625.62 8.72 627.23 3.83 623.01 6.85 618.79 3.83 620.4 8.72 616.18 11.74 621.4 11.74 623.01 16.63"/><polygon class="cls-3" points="642.12 16.63 643.74 11.74 648.95 11.74 644.73 8.72 646.34 3.83 642.12 6.85 637.9 3.83 639.52 8.72 635.3 11.74 640.51 11.74 642.12 16.63"/><polygon class="cls-3" points="661.24 16.63 662.85 11.74 668.06 11.74 663.84 8.72 665.45 3.83 661.24 6.85 657.02 3.83 658.63 8.72 654.41 11.74 659.62 11.74 661.24 16.63"/><polygon class="cls-3" points="680.35 16.63 681.96 11.74 687.17 11.74 682.96 8.72 684.57 3.83 680.35 6.85 676.13 3.83 677.74 8.72 673.52 11.74 678.74 11.74 680.35 16.63"/><polygon class="cls-3" points="699.46 16.63 701.07 11.74 706.29 11.74 702.07 8.72 703.68 3.83 699.46 6.85 695.24 3.83 696.85 8.72 692.63 11.74 697.85 11.74 699.46 16.63"/><polygon class="cls-3" points="718.57 16.63 720.18 11.74 725.4 11.74 721.18 8.72 722.79 3.83 718.57 6.85 714.35 3.83 715.97 8.72 711.75 11.74 716.96 11.74 718.57 16.63"/><polygon class="cls-3" points="737.68 16.63 739.3 11.74 744.51 11.74 740.29 8.72 741.9 3.83 737.68 6.85 733.47 3.83 735.08 8.72 730.86 11.74 736.07 11.74 737.68 16.63"/><polygon class="cls-3" points="362.83 2.62 364.44 -2.26 369.66 -2.26 365.44 -5.29 367.05 -10.17 362.83 -7.15 358.61 -10.17 360.23 -5.29 356.01 -2.26 361.22 -2.26 362.83 2.62"/><polygon class="cls-3" points="381.94 2.62 383.56 -2.26 388.77 -2.26 384.55 -5.29 386.16 -10.17 381.94 -7.15 377.73 -10.17 379.34 -5.29 375.12 -2.26 380.33 -2.26 381.94 2.62"/><polygon class="cls-3" points="401.06 2.62 402.67 -2.26 407.88 -2.26 403.66 -5.29 405.28 -10.17 401.06 -7.15 396.84 -10.17 398.45 -5.29 394.23 -2.26 399.45 -2.26 401.06 2.62"/><polygon class="cls-3" points="420.17 2.62 421.78 -2.26 427 -2.26 422.78 -5.29 424.39 -10.17 420.17 -7.15 415.95 -10.17 417.56 -5.29 413.34 -2.26 418.56 -2.26 420.17 2.62"/><polygon class="cls-3" points="439.28 2.62 440.89 -2.26 446.11 -2.26 441.89 -5.29 443.5 -10.17 439.28 -7.15 435.06 -10.17 436.67 -5.29 432.46 -2.26 437.67 -2.26 439.28 2.62"/><polygon class="cls-3" points="458.39 2.62 460 -2.26 465.22 -2.26 461 -5.29 462.61 -10.17 458.39 -7.15 454.18 -10.17 455.79 -5.29 451.57 -2.26 456.78 -2.26 458.39 2.62"/><polygon class="cls-3" points="477.51 2.62 479.12 -2.26 484.33 -2.26 480.11 -5.29 481.73 -10.17 477.51 -7.15 473.29 -10.17 474.9 -5.29 470.68 -2.26 475.89 -2.26 477.51 2.62"/><polygon class="cls-3" points="496.62 2.62 498.23 -2.26 503.44 -2.26 499.23 -5.29 500.84 -10.17 496.62 -7.15 492.4 -10.17 494.01 -5.29 489.79 -2.26 495.01 -2.26 496.62 2.62"/><polygon class="cls-3" points="515.73 2.62 517.34 -2.26 522.56 -2.26 518.34 -5.29 519.95 -10.17 515.73 -7.15 511.51 -10.17 513.12 -5.29 508.9 -2.26 514.12 -2.26 515.73 2.62"/><polygon class="cls-3" points="534.84 2.62 536.45 -2.26 541.67 -2.26 537.45 -5.29 539.06 -10.17 534.84 -7.15 530.62 -10.17 532.24 -5.29 528.02 -2.26 533.23 -2.26 534.84 2.62"/><polygon class="cls-3" points="553.96 2.62 555.57 -2.26 560.78 -2.26 556.56 -5.29 558.17 -10.17 553.96 -7.15 549.74 -10.17 551.35 -5.29 547.13 -2.26 552.34 -2.26 553.96 2.62"/><polygon class="cls-3" points="573.07 2.62 574.68 -2.26 579.89 -2.26 575.67 -5.29 577.29 -10.17 573.07 -7.15 568.85 -10.17 570.46 -5.29 566.24 -2.26 571.46 -2.26 573.07 2.62"/><polygon class="cls-3" points="592.18 2.62 593.79 -2.26 599 -2.26 594.79 -5.29 596.4 -10.17 592.18 -7.15 587.96 -10.17 589.57 -5.29 585.35 -2.26 590.57 -2.26 592.18 2.62"/><polygon class="cls-3" points="611.29 2.62 612.9 -2.26 618.12 -2.26 613.9 -5.29 615.51 -10.17 611.29 -7.15 607.07 -10.17 608.68 -5.29 604.47 -2.26 609.68 -2.26 611.29 2.62"/><polygon class="cls-3" points="630.4 2.62 632.01 -2.26 637.23 -2.26 633.01 -5.29 634.62 -10.17 630.4 -7.15 626.18 -10.17 627.8 -5.29 623.58 -2.26 628.79 -2.26 630.4 2.62"/><polygon class="cls-3" points="649.52 2.62 651.13 -2.26 656.34 -2.26 652.12 -5.29 653.74 -10.17 649.52 -7.15 645.3 -10.17 646.91 -5.29 642.69 -2.26 647.9 -2.26 649.52 2.62"/><polygon class="cls-3" points="668.63 2.62 670.24 -2.26 675.45 -2.26 671.24 -5.29 672.85 -10.17 668.63 -7.15 664.41 -10.17 666.02 -5.29 661.8 -2.26 667.02 -2.26 668.63 2.62"/><polygon class="cls-3" points="687.74 2.62 689.35 -2.26 694.57 -2.26 690.35 -5.29 691.96 -10.17 687.74 -7.15 683.52 -10.17 685.13 -5.29 680.91 -2.26 686.13 -2.26 687.74 2.62"/><polygon class="cls-3" points="706.85 2.62 708.46 -2.26 713.68 -2.26 709.46 -5.29 711.07 -10.17 706.85 -7.15 702.63 -10.17 704.25 -5.29 700.03 -2.26 705.24 -2.26 706.85 2.62"/><polygon class="cls-3" points="725.97 2.62 727.58 -2.26 732.79 -2.26 728.57 -5.29 730.18 -10.17 725.97 -7.15 721.75 -10.17 723.36 -5.29 719.14 -2.26 724.35 -2.26 725.97 2.62"/><polygon class="cls-3" points="745.08 2.62 746.69 -2.26 751.9 -2.26 747.68 -5.29 749.3 -10.17 745.08 -7.15 740.86 -10.17 742.47 -5.29 738.25 -2.26 743.47 -2.26 745.08 2.62"/><polygon class="cls-3" points="0.27 56.23 1.88 51.35 7.09 51.35 2.87 48.32 4.49 43.44 0.27 46.46 -3.95 43.44 -2.34 48.32 -6.56 51.35 -1.34 51.35 0.27 56.23"/><polygon class="cls-3" points="19.38 56.23 20.99 51.35 26.2 51.35 21.99 48.32 23.6 43.44 19.38 46.46 15.16 43.44 16.77 48.32 12.55 51.35 17.77 51.35 19.38 56.23"/><polygon class="cls-3" points="38.49 56.23 40.1 51.35 45.32 51.35 41.1 48.32 42.71 43.44 38.49 46.46 34.27 43.44 35.88 48.32 31.66 51.35 36.88 51.35 38.49 56.23"/><polygon class="cls-3" points="57.6 56.23 59.22 51.35 64.43 51.35 60.21 48.32 61.82 43.44 57.6 46.46 53.38 43.44 55 48.32 50.78 51.35 55.99 51.35 57.6 56.23"/><polygon class="cls-3" points="76.72 56.23 78.33 51.35 83.54 51.35 79.32 48.32 80.93 43.44 76.72 46.46 72.5 43.44 74.11 48.32 69.89 51.35 75.1 51.35 76.72 56.23"/><polygon class="cls-3" points="95.83 56.23 97.44 51.35 102.65 51.35 98.44 48.32 100.05 43.44 95.83 46.46 91.61 43.44 93.22 48.32 89 51.35 94.22 51.35 95.83 56.23"/><polygon class="cls-3" points="114.94 56.23 116.55 51.35 121.77 51.35 117.55 48.32 119.16 43.44 114.94 46.46 110.72 43.44 112.33 48.32 108.11 51.35 113.33 51.35 114.94 56.23"/><polygon class="cls-3" points="134.05 56.23 135.66 51.35 140.88 51.35 136.66 48.32 138.27 43.44 134.05 46.46 129.83 43.44 131.44 48.32 127.23 51.35 132.44 51.35 134.05 56.23"/><polygon class="cls-3" points="153.16 56.23 154.78 51.35 159.99 51.35 155.77 48.32 157.38 43.44 153.16 46.46 148.95 43.44 150.56 48.32 146.34 51.35 151.55 51.35 153.16 56.23"/><polygon class="cls-3" points="172.28 56.23 173.89 51.35 179.1 51.35 174.88 48.32 176.5 43.44 172.28 46.46 168.06 43.44 169.67 48.32 165.45 51.35 170.67 51.35 172.28 56.23"/><polygon class="cls-3" points="191.39 56.23 193 51.35 198.22 51.35 194 48.32 195.61 43.44 191.39 46.46 187.17 43.44 188.78 48.32 184.56 51.35 189.78 51.35 191.39 56.23"/><polygon class="cls-3" points="210.5 56.23 212.11 51.35 217.33 51.35 213.11 48.32 214.72 43.44 210.5 46.46 206.28 43.44 207.89 48.32 203.68 51.35 208.89 51.35 210.5 56.23"/><polygon class="cls-3" points="229.61 56.23 231.22 51.35 236.44 51.35 232.22 48.32 233.83 43.44 229.61 46.46 225.4 43.44 227.01 48.32 222.79 51.35 228 51.35 229.61 56.23"/><polygon class="cls-3" points="248.73 56.23 250.34 51.35 255.55 51.35 251.33 48.32 252.94 43.44 248.73 46.46 244.51 43.44 246.12 48.32 241.9 51.35 247.12 51.35 248.73 56.23"/><polygon class="cls-3" points="267.84 56.23 269.45 51.35 274.66 51.35 270.44 48.32 272.06 43.44 267.84 46.46 263.62 43.44 265.23 48.32 261.01 51.35 266.23 51.35 267.84 56.23"/><polygon class="cls-3" points="286.95 56.23 288.56 51.35 293.78 51.35 289.56 48.32 291.17 43.44 286.95 46.46 282.73 43.44 284.34 48.32 280.13 51.35 285.34 51.35 286.95 56.23"/><polygon class="cls-3" points="306.06 56.23 307.67 51.35 312.89 51.35 308.67 48.32 310.28 43.44 306.06 46.46 301.84 43.44 303.45 48.32 299.24 51.35 304.45 51.35 306.06 56.23"/><polygon class="cls-3" points="325.18 56.23 326.79 51.35 332 51.35 327.78 48.32 329.39 43.44 325.18 46.46 320.96 43.44 322.57 48.32 318.35 51.35 323.56 51.35 325.18 56.23"/><polygon class="cls-3" points="344.29 56.23 345.9 51.35 351.11 51.35 346.89 48.32 348.51 43.44 344.29 46.46 340.07 43.44 341.68 48.32 337.46 51.35 342.68 51.35 344.29 56.23"/><polygon class="cls-3" points="363.4 56.23 365.01 51.35 370.23 51.35 366.01 48.32 367.62 43.44 363.4 46.46 359.18 43.44 360.79 48.32 356.57 51.35 361.79 51.35 363.4 56.23"/><polygon class="cls-3" points="11.99 43.44 13.6 38.55 18.81 38.55 14.59 35.53 16.2 30.64 11.99 33.66 7.77 30.64 9.38 35.53 5.16 38.55 10.38 38.55 11.99 43.44"/><polygon class="cls-3" points="31.1 43.44 32.71 38.55 37.92 38.55 33.71 35.53 35.32 30.64 31.1 33.66 26.88 30.64 28.49 35.53 24.27 38.55 29.49 38.55 31.1 43.44"/><polygon class="cls-3" points="50.21 43.44 51.82 38.55 57.04 38.55 52.82 35.53 54.43 30.64 50.21 33.66 45.99 30.64 47.6 35.53 43.38 38.55 48.6 38.55 50.21 43.44"/><polygon class="cls-3" points="69.32 43.44 70.93 38.55 76.15 38.55 71.93 35.53 73.54 30.64 69.32 33.66 65.1 30.64 66.72 35.53 62.5 38.55 67.71 38.55 69.32 43.44"/><polygon class="cls-3" points="88.44 43.44 90.05 38.55 95.26 38.55 91.04 35.53 92.65 30.64 88.44 33.66 84.22 30.64 85.83 35.53 81.61 38.55 86.82 38.55 88.44 43.44"/><polygon class="cls-3" points="107.55 43.44 109.16 38.55 114.37 38.55 110.16 35.53 111.77 30.64 107.55 33.66 103.33 30.64 104.94 35.53 100.72 38.55 105.94 38.55 107.55 43.44"/><polygon class="cls-3" points="126.66 43.44 128.27 38.55 133.49 38.55 129.27 35.53 130.88 30.64 126.66 33.66 122.44 30.64 124.05 35.53 119.83 38.55 125.05 38.55 126.66 43.44"/><polygon class="cls-3" points="145.77 43.44 147.38 38.55 152.6 38.55 148.38 35.53 149.99 30.64 145.77 33.66 141.55 30.64 143.16 35.53 138.95 38.55 144.16 38.55 145.77 43.44"/><polygon class="cls-3" points="164.88 43.44 166.5 38.55 171.71 38.55 167.49 35.53 169.1 30.64 164.88 33.66 160.67 30.64 162.28 35.53 158.06 38.55 163.27 38.55 164.88 43.44"/><polygon class="cls-3" points="184 43.44 185.61 38.55 190.82 38.55 186.6 35.53 188.22 30.64 184 33.66 179.78 30.64 181.39 35.53 177.17 38.55 182.38 38.55 184 43.44"/><polygon class="cls-3" points="203.11 43.44 204.72 38.55 209.93 38.55 205.72 35.53 207.33 30.64 203.11 33.66 198.89 30.64 200.5 35.53 196.28 38.55 201.5 38.55 203.11 43.44"/><polygon class="cls-3" points="222.22 43.44 223.83 38.55 229.05 38.55 224.83 35.53 226.44 30.64 222.22 33.66 218 30.64 219.61 35.53 215.4 38.55 220.61 38.55 222.22 43.44"/><polygon class="cls-3" points="241.33 43.44 242.94 38.55 248.16 38.55 243.94 35.53 245.55 30.64 241.33 33.66 237.12 30.64 238.73 35.53 234.51 38.55 239.72 38.55 241.33 43.44"/><polygon class="cls-3" points="260.44 43.44 262.06 38.55 267.27 38.55 263.05 35.53 264.66 30.64 260.44 33.66 256.23 30.64 257.84 35.53 253.62 38.55 258.83 38.55 260.44 43.44"/><polygon class="cls-3" points="279.56 43.44 281.17 38.55 286.38 38.55 282.17 35.53 283.78 30.64 279.56 33.66 275.34 30.64 276.95 35.53 272.73 38.55 277.95 38.55 279.56 43.44"/><polygon class="cls-3" points="298.67 43.44 300.28 38.55 305.5 38.55 301.28 35.53 302.89 30.64 298.67 33.66 294.45 30.64 296.06 35.53 291.84 38.55 297.06 38.55 298.67 43.44"/><polygon class="cls-3" points="317.78 43.44 319.39 38.55 324.61 38.55 320.39 35.53 322 30.64 317.78 33.66 313.56 30.64 315.18 35.53 310.96 38.55 316.17 38.55 317.78 43.44"/><polygon class="cls-3" points="336.89 43.44 338.51 38.55 343.72 38.55 339.5 35.53 341.11 30.64 336.89 33.66 332.68 30.64 334.29 35.53 330.07 38.55 335.28 38.55 336.89 43.44"/><polygon class="cls-3" points="356.01 43.44 357.62 38.55 362.83 38.55 358.61 35.53 360.23 30.64 356.01 33.66 351.79 30.64 353.4 35.53 349.18 38.55 354.39 38.55 356.01 43.44"/><polygon class="cls-3" points="375.12 43.44 376.73 38.55 381.94 38.55 377.73 35.53 379.34 30.64 375.12 33.66 370.9 30.64 372.51 35.53 368.29 38.55 373.51 38.55 375.12 43.44"/><polygon class="cls-3" points="0.27 29.43 1.88 24.54 7.09 24.54 2.87 21.52 4.49 16.63 0.27 19.65 -3.95 16.63 -2.34 21.52 -6.56 24.54 -1.34 24.54 0.27 29.43"/><polygon class="cls-3" points="19.38 29.43 20.99 24.54 26.2 24.54 21.99 21.52 23.6 16.63 19.38 19.65 15.16 16.63 16.77 21.52 12.55 24.54 17.77 24.54 19.38 29.43"/><polygon class="cls-3" points="38.49 29.43 40.1 24.54 45.32 24.54 41.1 21.52 42.71 16.63 38.49 19.65 34.27 16.63 35.88 21.52 31.66 24.54 36.88 24.54 38.49 29.43"/><polygon class="cls-3" points="57.6 29.43 59.22 24.54 64.43 24.54 60.21 21.52 61.82 16.63 57.6 19.65 53.38 16.63 55 21.52 50.78 24.54 55.99 24.54 57.6 29.43"/><polygon class="cls-3" points="76.72 29.43 78.33 24.54 83.54 24.54 79.32 21.52 80.93 16.63 76.72 19.65 72.5 16.63 74.11 21.52 69.89 24.54 75.1 24.54 76.72 29.43"/><polygon class="cls-3" points="95.83 29.43 97.44 24.54 102.65 24.54 98.44 21.52 100.05 16.63 95.83 19.65 91.61 16.63 93.22 21.52 89 24.54 94.22 24.54 95.83 29.43"/><polygon class="cls-3" points="114.94 29.43 116.55 24.54 121.77 24.54 117.55 21.52 119.16 16.63 114.94 19.65 110.72 16.63 112.33 21.52 108.11 24.54 113.33 24.54 114.94 29.43"/><polygon class="cls-3" points="134.05 29.43 135.66 24.54 140.88 24.54 136.66 21.52 138.27 16.63 134.05 19.65 129.83 16.63 131.44 21.52 127.23 24.54 132.44 24.54 134.05 29.43"/><polygon class="cls-3" points="153.16 29.43 154.78 24.54 159.99 24.54 155.77 21.52 157.38 16.63 153.16 19.65 148.95 16.63 150.56 21.52 146.34 24.54 151.55 24.54 153.16 29.43"/><polygon class="cls-3" points="172.28 29.43 173.89 24.54 179.1 24.54 174.88 21.52 176.5 16.63 172.28 19.65 168.06 16.63 169.67 21.52 165.45 24.54 170.67 24.54 172.28 29.43"/><polygon class="cls-3" points="191.39 29.43 193 24.54 198.22 24.54 194 21.52 195.61 16.63 191.39 19.65 187.17 16.63 188.78 21.52 184.56 24.54 189.78 24.54 191.39 29.43"/><polygon class="cls-3" points="210.5 29.43 212.11 24.54 217.33 24.54 213.11 21.52 214.72 16.63 210.5 19.65 206.28 16.63 207.89 21.52 203.68 24.54 208.89 24.54 210.5 29.43"/><polygon class="cls-3" points="229.61 29.43 231.22 24.54 236.44 24.54 232.22 21.52 233.83 16.63 229.61 19.65 225.4 16.63 227.01 21.52 222.79 24.54 228 24.54 229.61 29.43"/><polygon class="cls-3" points="248.73 29.43 250.34 24.54 255.55 24.54 251.33 21.52 252.94 16.63 248.73 19.65 244.51 16.63 246.12 21.52 241.9 24.54 247.12 24.54 248.73 29.43"/><polygon class="cls-3" points="267.84 29.43 269.45 24.54 274.66 24.54 270.44 21.52 272.06 16.63 267.84 19.65 263.62 16.63 265.23 21.52 261.01 24.54 266.23 24.54 267.84 29.43"/><polygon class="cls-3" points="286.95 29.43 288.56 24.54 293.78 24.54 289.56 21.52 291.17 16.63 286.95 19.65 282.73 16.63 284.34 21.52 280.13 24.54 285.34 24.54 286.95 29.43"/><polygon class="cls-3" points="306.06 29.43 307.67 24.54 312.89 24.54 308.67 21.52 310.28 16.63 306.06 19.65 301.84 16.63 303.45 21.52 299.24 24.54 304.45 24.54 306.06 29.43"/><polygon class="cls-3" points="325.18 29.43 326.79 24.54 332 24.54 327.78 21.52 329.39 16.63 325.18 19.65 320.96 16.63 322.57 21.52 318.35 24.54 323.56 24.54 325.18 29.43"/><polygon class="cls-3" points="344.29 29.43 345.9 24.54 351.11 24.54 346.89 21.52 348.51 16.63 344.29 19.65 340.07 16.63 341.68 21.52 337.46 24.54 342.68 24.54 344.29 29.43"/><polygon class="cls-3" points="363.4 29.43 365.01 24.54 370.23 24.54 366.01 21.52 367.62 16.63 363.4 19.65 359.18 16.63 360.79 21.52 356.57 24.54 361.79 24.54 363.4 29.43"/><polygon class="cls-3" points="11.99 16.63 13.6 11.74 18.81 11.74 14.59 8.72 16.2 3.83 11.99 6.85 7.77 3.83 9.38 8.72 5.16 11.74 10.38 11.74 11.99 16.63"/><polygon class="cls-3" points="31.1 16.63 32.71 11.74 37.92 11.74 33.71 8.72 35.32 3.83 31.1 6.85 26.88 3.83 28.49 8.72 24.27 11.74 29.49 11.74 31.1 16.63"/><polygon class="cls-3" points="50.21 16.63 51.82 11.74 57.04 11.74 52.82 8.72 54.43 3.83 50.21 6.85 45.99 3.83 47.6 8.72 43.38 11.74 48.6 11.74 50.21 16.63"/><polygon class="cls-3" points="69.32 16.63 70.93 11.74 76.15 11.74 71.93 8.72 73.54 3.83 69.32 6.85 65.1 3.83 66.72 8.72 62.5 11.74 67.71 11.74 69.32 16.63"/><polygon class="cls-3" points="88.44 16.63 90.05 11.74 95.26 11.74 91.04 8.72 92.65 3.83 88.44 6.85 84.22 3.83 85.83 8.72 81.61 11.74 86.82 11.74 88.44 16.63"/><polygon class="cls-3" points="107.55 16.63 109.16 11.74 114.37 11.74 110.16 8.72 111.77 3.83 107.55 6.85 103.33 3.83 104.94 8.72 100.72 11.74 105.94 11.74 107.55 16.63"/><polygon class="cls-3" points="126.66 16.63 128.27 11.74 133.49 11.74 129.27 8.72 130.88 3.83 126.66 6.85 122.44 3.83 124.05 8.72 119.83 11.74 125.05 11.74 126.66 16.63"/><polygon class="cls-3" points="145.77 16.63 147.38 11.74 152.6 11.74 148.38 8.72 149.99 3.83 145.77 6.85 141.55 3.83 143.16 8.72 138.95 11.74 144.16 11.74 145.77 16.63"/><polygon class="cls-3" points="164.88 16.63 166.5 11.74 171.71 11.74 167.49 8.72 169.1 3.83 164.88 6.85 160.67 3.83 162.28 8.72 158.06 11.74 163.27 11.74 164.88 16.63"/><polygon class="cls-3" points="184 16.63 185.61 11.74 190.82 11.74 186.6 8.72 188.22 3.83 184 6.85 179.78 3.83 181.39 8.72 177.17 11.74 182.38 11.74 184 16.63"/><polygon class="cls-3" points="203.11 16.63 204.72 11.74 209.93 11.74 205.72 8.72 207.33 3.83 203.11 6.85 198.89 3.83 200.5 8.72 196.28 11.74 201.5 11.74 203.11 16.63"/><polygon class="cls-3" points="222.22 16.63 223.83 11.74 229.05 11.74 224.83 8.72 226.44 3.83 222.22 6.85 218 3.83 219.61 8.72 215.4 11.74 220.61 11.74 222.22 16.63"/><polygon class="cls-3" points="241.33 16.63 242.94 11.74 248.16 11.74 243.94 8.72 245.55 3.83 241.33 6.85 237.12 3.83 238.73 8.72 234.51 11.74 239.72 11.74 241.33 16.63"/><polygon class="cls-3" points="260.44 16.63 262.06 11.74 267.27 11.74 263.05 8.72 264.66 3.83 260.44 6.85 256.23 3.83 257.84 8.72 253.62 11.74 258.83 11.74 260.44 16.63"/><polygon class="cls-3" points="279.56 16.63 281.17 11.74 286.38 11.74 282.17 8.72 283.78 3.83 279.56 6.85 275.34 3.83 276.95 8.72 272.73 11.74 277.95 11.74 279.56 16.63"/><polygon class="cls-3" points="298.67 16.63 300.28 11.74 305.5 11.74 301.28 8.72 302.89 3.83 298.67 6.85 294.45 3.83 296.06 8.72 291.84 11.74 297.06 11.74 298.67 16.63"/><polygon class="cls-3" points="317.78 16.63 319.39 11.74 324.61 11.74 320.39 8.72 322 3.83 317.78 6.85 313.56 3.83 315.18 8.72 310.96 11.74 316.17 11.74 317.78 16.63"/><polygon class="cls-3" points="336.89 16.63 338.51 11.74 343.72 11.74 339.5 8.72 341.11 3.83 336.89 6.85 332.68 3.83 334.29 8.72 330.07 11.74 335.28 11.74 336.89 16.63"/><polygon class="cls-3" points="356.01 16.63 357.62 11.74 362.83 11.74 358.61 8.72 360.23 3.83 356.01 6.85 351.79 3.83 353.4 8.72 349.18 11.74 354.39 11.74 356.01 16.63"/><polygon class="cls-3" points="375.12 16.63 376.73 11.74 381.94 11.74 377.73 8.72 379.34 3.83 375.12 6.85 370.9 3.83 372.51 8.72 368.29 11.74 373.51 11.74 375.12 16.63"/><polygon class="cls-3" points="0.27 2.62 1.88 -2.26 7.09 -2.26 2.87 -5.29 4.49 -10.17 0.27 -7.15 -3.95 -10.17 -2.34 -5.29 -6.56 -2.26 -1.34 -2.26 0.27 2.62"/><polygon class="cls-3" points="19.38 2.62 20.99 -2.26 26.2 -2.26 21.99 -5.29 23.6 -10.17 19.38 -7.15 15.16 -10.17 16.77 -5.29 12.55 -2.26 17.77 -2.26 19.38 2.62"/><polygon class="cls-3" points="38.49 2.62 40.1 -2.26 45.32 -2.26 41.1 -5.29 42.71 -10.17 38.49 -7.15 34.27 -10.17 35.88 -5.29 31.66 -2.26 36.88 -2.26 38.49 2.62"/><polygon class="cls-3" points="57.6 2.62 59.22 -2.26 64.43 -2.26 60.21 -5.29 61.82 -10.17 57.6 -7.15 53.38 -10.17 55 -5.29 50.78 -2.26 55.99 -2.26 57.6 2.62"/><polygon class="cls-3" points="76.72 2.62 78.33 -2.26 83.54 -2.26 79.32 -5.29 80.93 -10.17 76.72 -7.15 72.5 -10.17 74.11 -5.29 69.89 -2.26 75.1 -2.26 76.72 2.62"/><polygon class="cls-3" points="95.83 2.62 97.44 -2.26 102.65 -2.26 98.44 -5.29 100.05 -10.17 95.83 -7.15 91.61 -10.17 93.22 -5.29 89 -2.26 94.22 -2.26 95.83 2.62"/><polygon class="cls-3" points="114.94 2.62 116.55 -2.26 121.77 -2.26 117.55 -5.29 119.16 -10.17 114.94 -7.15 110.72 -10.17 112.33 -5.29 108.11 -2.26 113.33 -2.26 114.94 2.62"/><polygon class="cls-3" points="134.05 2.62 135.66 -2.26 140.88 -2.26 136.66 -5.29 138.27 -10.17 134.05 -7.15 129.83 -10.17 131.44 -5.29 127.23 -2.26 132.44 -2.26 134.05 2.62"/><polygon class="cls-3" points="153.16 2.62 154.78 -2.26 159.99 -2.26 155.77 -5.29 157.38 -10.17 153.16 -7.15 148.95 -10.17 150.56 -5.29 146.34 -2.26 151.55 -2.26 153.16 2.62"/><polygon class="cls-3" points="172.28 2.62 173.89 -2.26 179.1 -2.26 174.88 -5.29 176.5 -10.17 172.28 -7.15 168.06 -10.17 169.67 -5.29 165.45 -2.26 170.67 -2.26 172.28 2.62"/><polygon class="cls-3" points="191.39 2.62 193 -2.26 198.22 -2.26 194 -5.29 195.61 -10.17 191.39 -7.15 187.17 -10.17 188.78 -5.29 184.56 -2.26 189.78 -2.26 191.39 2.62"/><polygon class="cls-3" points="210.5 2.62 212.11 -2.26 217.33 -2.26 213.11 -5.29 214.72 -10.17 210.5 -7.15 206.28 -10.17 207.89 -5.29 203.68 -2.26 208.89 -2.26 210.5 2.62"/><polygon class="cls-3" points="229.61 2.62 231.22 -2.26 236.44 -2.26 232.22 -5.29 233.83 -10.17 229.61 -7.15 225.4 -10.17 227.01 -5.29 222.79 -2.26 228 -2.26 229.61 2.62"/><polygon class="cls-3" points="248.73 2.62 250.34 -2.26 255.55 -2.26 251.33 -5.29 252.94 -10.17 248.73 -7.15 244.51 -10.17 246.12 -5.29 241.9 -2.26 247.12 -2.26 248.73 2.62"/><polygon class="cls-3" points="267.84 2.62 269.45 -2.26 274.66 -2.26 270.44 -5.29 272.06 -10.17 267.84 -7.15 263.62 -10.17 265.23 -5.29 261.01 -2.26 266.23 -2.26 267.84 2.62"/><polygon class="cls-3" points="286.95 2.62 288.56 -2.26 293.78 -2.26 289.56 -5.29 291.17 -10.17 286.95 -7.15 282.73 -10.17 284.34 -5.29 280.13 -2.26 285.34 -2.26 286.95 2.62"/><polygon class="cls-3" points="306.06 2.62 307.67 -2.26 312.89 -2.26 308.67 -5.29 310.28 -10.17 306.06 -7.15 301.84 -10.17 303.45 -5.29 299.24 -2.26 304.45 -2.26 306.06 2.62"/><polygon class="cls-3" points="325.18 2.62 326.79 -2.26 332 -2.26 327.78 -5.29 329.39 -10.17 325.18 -7.15 320.96 -10.17 322.57 -5.29 318.35 -2.26 323.56 -2.26 325.18 2.62"/><polygon class="cls-3" points="344.29 2.62 345.9 -2.26 351.11 -2.26 346.89 -5.29 348.51 -10.17 344.29 -7.15 340.07 -10.17 341.68 -5.29 337.46 -2.26 342.68 -2.26 344.29 2.62"/><polygon class="cls-3" points="363.4 2.62 365.01 -2.26 370.23 -2.26 366.01 -5.29 367.62 -10.17 363.4 -7.15 359.18 -10.17 360.79 -5.29 356.57 -2.26 361.79 -2.26 363.4 2.62"/></g><line class="cls-4" x1="747.69" y1="2.22" x2="-2.34" y2="2.22"/><line class="cls-4" x1="747.69" y1="43.44" x2="-2.34" y2="43.44"/></svg>