<svg id="Layer_1" data-name="Layer 1" xmlns="http://www.w3.org/2000/svg" xmlns:xlink="http://www.w3.org/1999/xlink" viewBox="0 0 245.31 139.4"><defs><style>.cls-1{fill:none;}.cls-2{fill:#f05755;}.cls-3{fill:#6abce9;}.cls-4{clip-path:url(#clip-path);}.cls-5{fill:#fff;}</style><clipPath id="clip-path"><polygon class="cls-1" points="-253.07 387.7 497.2 385.84 498.38 427.43 -251.89 427.46 -253.07 387.7"/></clipPath></defs><title>Artboard 4</title><path class="cls-2" d="M241.78,27.56,192.94,1A7.32,7.32,0,0,0,186,1L137.15,27.56a6.62,6.62,0,0,0-3.53,5.8v72.8a6.65,6.65,0,0,0,3.53,5.8L186,138.53a7.38,7.38,0,0,0,6.95,0L241.78,112a6.65,6.65,0,0,0,3.53-5.8V33.36A6.62,6.62,0,0,0,241.78,27.56Zm1.05,78.6a4.14,4.14,0,0,1-2.23,3.61l-48.84,26.57a4.85,4.85,0,0,1-4.59,0l-48.84-26.57a4.15,4.15,0,0,1-2.24-3.61V33.36a4.17,4.17,0,0,1,2.24-3.62L187.17,3.18a4.83,4.83,0,0,1,4.59,0L240.6,29.74a4.16,4.16,0,0,1,2.23,3.62Z"/><path class="cls-2" d="M235.33,82.13a30.53,30.53,0,0,0,1.76-4.51,44.69,44.69,0,0,1-1,4.73,12,12,0,0,0,2.1-9.47A12.37,12.37,0,0,0,235.33,82.13Z"/><path class="cls-2" d="M225.46,52.1l2.11-.51.86,2.13-1.88,1.1.7,1.75,10.28-6.2-1-2.54-11.69,2.68ZM235,49.8l-5.22,3.08-.67-1.67Z"/><polygon class="cls-2" points="235.39 59.17 234.6 57.57 233.82 59.17 232.06 59.42 233.33 60.67 233.03 62.43 234.6 61.6 236.18 62.43 235.88 60.67 237.15 59.42 235.39 59.17"/><path class="cls-2" d="M230.72,94.58a.8.8,0,0,0-.07.5.56.56,0,0,0,.45.36,1.33,1.33,0,0,0,.59-.09,6,6,0,0,0,2.36-1.86,19.69,19.69,0,0,0,4.35-9A21.25,21.25,0,0,0,230.72,94.58Z"/><path class="cls-2" d="M234.32,85.35a.65.65,0,0,0,.78.3,1.06,1.06,0,0,0,.62-.64.88.88,0,0,0,0-.62A.74.74,0,0,0,235,84a1.27,1.27,0,0,0-.8.5,1,1,0,0,1,.57-.09,1.49,1.49,0,0,0-.27.23A.7.7,0,0,0,234.32,85.35Z"/><path class="cls-2" d="M233,74.42a2.12,2.12,0,0,0,.34.73.8.8,0,0,0,.7.34.81.81,0,0,0,.57-.44,2,2,0,0,0,.19-.72,10.39,10.39,0,0,0-.65-4.68A23.5,23.5,0,0,0,232,65.41v.07A21.38,21.38,0,0,0,233,74.42Z"/><path class="cls-2" d="M227,101.09c1-.64,2.07-1.18,2.07-1.18a2.12,2.12,0,0,0,1.95.43c1-.38.65-1.66.65-1.66a1.35,1.35,0,0,0-1.82.06c.11-.63,1.22-.64,1.22-.64a1.48,1.48,0,0,0-1.9.8,1.94,1.94,0,0,0-.19.47,35.43,35.43,0,0,0-3.55,2.13,70.25,70.25,0,0,0,4.42-7.45A51.7,51.7,0,0,0,233.19,85a52.31,52.31,0,0,0,1.09-6.3s.6-1.2.17-1.61-.74.35-.64,1.3a62.56,62.56,0,0,1-1.7,8.44A59.67,59.67,0,0,1,229,94.62a16,16,0,0,0-.68-7.94c-.09-.76-.15-1.51-.54-1.65s-.66.43-.63.65a5.14,5.14,0,0,1,1.07,2.63,16,16,0,0,1-.33,8.24,35.7,35.7,0,0,1-2.4,4,55.56,55.56,0,0,1-4,4.85c-1.08,1.11-3.25,3.17-4.86,4.64.73-1.34,1.77-2.64,1.74-3,.4-.22,1-1.17.47-1.54s-1,.92-.91,1.46a19.13,19.13,0,0,1-4.89,5.56c-3.31,1.92-7.63,4.13-9.9,4.7,1.07-1.29,2.1-2.45,2.17-2.57.58-.19,1.87-.9.72-2,0,0-1.77-.23-1.21,1.68a10.13,10.13,0,0,1-2.54,2.91c-2.11,1-4.4,1.77-9.82,2.19a6.54,6.54,0,0,0,1.6.57c1-.06,4.18-.63,4.6-.53.8.13,4.43,1.77,8.73,1.23,0,0,.22-.27-2-.91a19.9,19.9,0,0,0-5.75-.73,69.89,69.89,0,0,0,7.5-2.6,54.26,54.26,0,0,0,7.68-4.47s2.54-1.87,3.2-2.3,3.39-1.79,4.5-1.58c-1.23.56-4.58,2-4.58,2s1.4.5,5.11-.51a19.51,19.51,0,0,0,9.47-6.52c-1.16,0-5.21.26-12,4.14C223,104.46,224.09,102.84,227,101.09Z"/><path class="cls-2" d="M222.66,47l4.11-2.53.34.55c.44.73.29,1.26-.65,1.83l-1.59,1a3.43,3.43,0,0,0-1.15.91l1,1.62a3.4,3.4,0,0,1,1.12-.93l1.55-1c1.06-.65,1.66-1.38,1.51-2.38a2.35,2.35,0,0,0,2.68-.22l.8-.49c1.56-1,1.89-2.13.88-3.78l-1.46-2.41-10.1,6.2Zm8.66-5.32.46.77c.35.56.18,1-.54,1.45l-1,.61c-.8.5-1.28.29-1.65-.3l-.38-.62Z"/><path class="cls-2" d="M231.39,85.44a13.53,13.53,0,0,0,.38-3.47,13.61,13.61,0,0,0-.48-2.53,7.81,7.81,0,0,0-1.45-3.39,10.65,10.65,0,0,0-.87,3.74c-.24,2.62-.12,5.41,1.28,7.64a9.09,9.09,0,0,1,0-2.15,8.33,8.33,0,0,0,.53,2.46A10.18,10.18,0,0,0,231.39,85.44Z"/><polygon class="cls-2" points="221.17 44.65 222.46 43.54 220.37 41.09 223.01 38.83 224.66 40.78 225.95 39.67 224.29 37.72 226.8 35.57 228.89 38.03 230.18 36.92 226.88 33.05 217.88 40.77 221.17 44.65"/><path class="cls-2" d="M226.09,87.53a21.12,21.12,0,0,0-4.24,15.09c.51-1.07,1-2.15,1.52-3.23v0c-.13.91-.27,1.82-.4,2.73A18.12,18.12,0,0,0,226.09,87.53Z"/><path class="cls-2" d="M216,36.81c-.15-.13-.32-.3-.46-.44l-1.14,1.25a5.46,5.46,0,0,0,.64.63c1,1,2.39,1.35,4-.41l6-6.62L223.66,30l-6.07,6.72A1,1,0,0,1,216,36.81Z"/><path class="cls-2" d="M218.69,103.53a1,1,0,0,0-.1.45.67.67,0,0,0,.1.34,1.16,1.16,0,0,0,1.28.56,1.42,1.42,0,0,0,1-1,1.07,1.07,0,0,0,0-.64,1,1,0,0,0-.19-.32,1.55,1.55,0,0,0-2-.25,1.84,1.84,0,0,1,.93.1.68.68,0,0,0-.62.16A1.63,1.63,0,0,0,218.69,103.53Z"/><polygon class="cls-2" points="214.12 37.31 215.08 35.92 212.44 34.07 214.43 31.21 216.52 32.68 217.49 31.29 215.39 29.82 217.28 27.1 219.91 28.95 220.88 27.55 216.71 24.64 209.95 34.4 214.12 37.31"/><path class="cls-2" d="M218.49,113.89c1.09-.26.85-1.59.85-1.59-1.22-1.88-3.43-.22-3.1.79S217.15,114.22,218.49,113.89Z"/><path class="cls-2" d="M212.57,115.61s-4.53.75-5.76,2.28c.42.36,2.77.65,4.53.39a13.44,13.44,0,0,1-3.57.38c2.19,1.07,8.09,2,16-2.66C223.82,116,221.54,114.6,212.57,115.61Z"/><path class="cls-2" d="M214.74,108a15.76,15.76,0,0,0,3.13-8.89,21.25,21.25,0,0,0-8.32,10.06c-1.35,3.34-1.32,3.78-1.32,3.78s.92-.25,5.4-6.33a31.32,31.32,0,0,1-4.66,6.16C210.06,112.76,211.47,112.56,214.74,108Z"/><path class="cls-2" d="M225.21,68.48a35.83,35.83,0,0,0-35.74-35.91h0a35.91,35.91,0,1,0,35.75,35.91ZM209.55,41.84l-7.35,7L199,47.53c0-.31-.08-.7-.13-1.14l4.47-8.31A33.16,33.16,0,0,1,209.55,41.84Zm-7.14-4.15.8.35-4.49,7.32c-.17-1.39-.4-3-.65-4.13l-.1-.42-.34-.28a4.05,4.05,0,0,0-2-.76l.94-4A32.31,32.31,0,0,1,202.41,37.69Zm-6,8.81-2.15-.85-.66-.27-2.1-.82a11.17,11.17,0,0,1-.23-1.65,11.66,11.66,0,0,1,3.27-.7H195a2.57,2.57,0,0,1,.74.11C196,43.56,196.21,45.21,196.36,46.5Zm0-10.71-1.17,4a12.67,12.67,0,0,0-5.53,1.13l-.16-5.81A33.36,33.36,0,0,1,196.4,35.79Zm-7-.73-.17,6.17a2.82,2.82,0,0,0-.43,2.34l-.12,0h0l-.63,0h-.32l-.32,0-.64,0-.64.07-.66.09-.52.1-2.41-8.11A33.36,33.36,0,0,1,189.39,35.06ZM179,56.55c-.19-.44-.32-.76-.38-.89v0h0l-.17-.53a29.38,29.38,0,0,1-1-4.35l.17-.13a5.6,5.6,0,0,1,.65-.41,7.29,7.29,0,0,1,3.23-.91h0c0,.22.1.48.16.74.25,1.2.59,2.75,1,4.31.17.72.34,1.45.52,2.14.11.46.23.91.34,1.33.18.67.35,1.28.51,1.8l.06.2-.08,0c-.57.29-1.23.58-1.86.84-.36.15-.71.29-1,.41-.14-.27-.27-.55-.4-.84-.21-.45-.42-.91-.61-1.34C179.59,58,179.22,57.16,179,56.55Zm.36,6.76,0,0-.08.09-.1.1-.09.09-.1.09-.1.09-.1.08-.11.09-.11.08-.11.08-.12.08-.11.08-.12.07-.12.07-.12.07-.25.12c-.09,0-.17.09-.26.12l-.25.11H177l-.25-.35-.36-.53-.35-.55c-.11-.18-.23-.36-.34-.55l-.24-.4-.09-.16-.33-.57-.07-.14-.24-.44c-.11-.19-.21-.38-.31-.58s-.21-.39-.31-.58l-.29-.59-.3-.6L173.1,58l-.17-.38-.21-.45c-.11-.26-.23-.51-.33-.76h0l-.21-.88-.06-.2.52-.41a10.17,10.17,0,0,1,1.14-.75c.1-.05.19-.11.29-.15l.29-.14.22-.09.06,0,.14,0,.14,0,.13,0,.13,0h0l.22.63a.42.42,0,0,1,0,.1l.22.61c.08.24.17.47.26.71l.27.7a.14.14,0,0,0,0,.06v0l0,.06h0s0,0,0,0c.06.18.13.35.2.52s.18.47.28.7l.16.39.12.31.35.81c.08.19.17.38.25.58l.31.69.33.69.12.25.21.44c.11.21.21.42.33.63l0,0,.32.59Zm4.55-16h0l0,0,0,0h0Zm.09,1.3a5.4,5.4,0,0,1,0-.56c0-.19,0-.37,0-.53s0-.17,0-.23a.22.22,0,0,1,0-.09h0l0-.07,0-.08,0,0,0,0,0,0,0-.05s0,0,0,0l0,0,.06,0,.06,0,.15-.09.19-.08.21-.08h0l.07,0,.12,0,.24-.06.3-.06.22,0,.54-.08.56-.06.54,0v.22c0,.2,0,.39,0,.58s0,.38,0,.57a2.64,2.64,0,0,0,0,.28c0,.09,0,.19,0,.28l0,.29,0,.28,0,.28c0,.09,0,.19,0,.28l-.05.29.21.26,1.47,1.76.57.69v.63c0,.3,0,.6,0,.9s0,.6,0,.9,0,.6,0,.9,0,.59-.05.89l0,.45,0,.44c0,.3,0,.59-.08.89,0,0,0,0,0,.06l-.11,0-.27.08-.27.06-.29.07-.28,0-.29,0-.29,0-.3,0-.3,0-.29,0-.3,0c-.1-.34-.21-.74-.33-1.19,0-.2-.1-.4-.16-.61-.32-1.22-.67-2.69-1-4.18-.24-1-.47-2.07-.68-3,0-.17,0-.35-.05-.52S184,48.79,184,48.6Zm-7.45-10.91a32.66,32.66,0,0,1,5.88-1.87l2,8.24-.07,0-.18.06a2.48,2.48,0,0,0-.35.13l-.37.16-.37.21-.19.13c-.06,0-.13.09-.19.15a3.14,3.14,0,0,0-.64.73l-.06.09,0,0,0,.06,0,.06h0v0h0v0l0,.07a1.56,1.56,0,0,0-.11.24l0,0v0l0,.08a1,1,0,0,0,0,.15,2.07,2.07,0,0,0,0,.22h-.39L175.72,38Zm-.89.39,4.74,8.82a9.83,9.83,0,0,0-4,1.55l-7-6.61A33.56,33.56,0,0,1,175.62,38.08Zm3.54,40.5-.1,1.06-4.36,8.1L179,80.81l-1.71,18.76-.73-.3a33.48,33.48,0,0,1-10.57-54.42,34,34,0,0,1,3.39-3l6.52,6.93a7,7,0,0,0-.55.52l-.12.13-.08.16a2.74,2.74,0,0,0-.15,1.57l-.19,0-.25,0-.24.06-.23.07-.23.08-.44.17-.41.19-.3.15-8.76-4.75,8.2,5.08-.27.17c-.12.08-.24.16-.35.25l-.34.25c-.23.17-.45.34-.66.52l-.32.28-.16.14-.08.08-.09.09-.24,1.42,0-.06v0l0,0v0c0,.06,0,.13.07.21l.12.44.08.3L161,54.38,170,57.11v0c0,.1.05.2.08.3h0l0,0,.39,1.52.47,1.86.22.89-11.27.32,11.43.32.09.35.88,3.59L161,69.73,172.5,67l.11.44.12.47a2.1,2.1,0,0,0,.06.24l.06.24.13.48c0,.16.08.33.13.49.1.31.2.63.31,1l.21.58-9.73,6,10-5.4.28.68c.15.3.29.6.44.91l.24.44c.08.15.15.3.24.44l.26.43.14.22.14.21.28.42v0L168.59,83l7.68-7.29c.18.23.37.45.56.68s.23.25.34.37.23.25.36.37l.36.35.38.33c.13.12.26.22.39.32l.2.16.21.15.17.12Zm10.3,23.32-1,0-1.82-19.8h-.05l.2,19.71a33,33,0,0,1-7.11-1.37l1.88-20.58.18.08a6.9,6.9,0,0,0,1,.27,5.59,5.59,0,0,0,1,.13,4.14,4.14,0,0,0,.61,0,2.63,2.63,0,0,0,.39-.06l-.34-.14c-.49-.2-1-.41-1.42-.63s-.87-.42-1.29-.65v0h0l-.31-.18c-.24-.14-.48-.3-.7-.46s-.35-.25-.52-.38a3.11,3.11,0,0,0-.28-.23l-.17-.15-.17-.16c-.11-.1-.23-.2-.33-.31l-.33-.33-.3-.35c-.11-.11-.2-.23-.3-.35s-.19-.23-.28-.36-.36-.49-.52-.75l0-.07a3.53,3.53,0,0,1-.21-.32l-.17-.28-.07-.12-.11-.2c0-.06-.07-.13-.11-.2l-.21-.41c-.07-.13-.13-.28-.2-.42l-.19-.42-.34-.85-.3-.88h0l-.22-.74,0-.15-.22-.9a3.41,3.41,0,0,1-.1-.46l-.1-.45,0-.23c0-.08,0-.16,0-.24l-.09-.47-.09-.48-.09-.47-.06-.31c0-.16-.06-.31-.08-.47a.41.41,0,0,0,.07.11l.2.3.19.29.3.42.12.15.44.58.48.62.76-.19.38-.1.37-.12.37-.13c.12,0,.24-.1.36-.15a2.72,2.72,0,0,0,.35-.16,2.21,2.21,0,0,0,.34-.18l.17-.09.17-.1.17-.1.16-.11.16-.1.16-.12.16-.12.15-.12.16-.13.15-.13.14-.13.15-.15.14-.14.14-.16.1-.11.16-.21c.09-.11.17-.23.25-.35s.15-.25.23-.38l.34-.58h0v0c.45-.17,1-.37,1.46-.6a18.2,18.2,0,0,0,2.54-1.3l.38-.25h.17l.34,0,.34,0,.34,0,.33-.05.34-.06.35-.07.34-.07.34-.08.35-.1.35-.11.35-.12.35-.15.74-.29v-.75c0-.32,0-.63,0-1s0-.62,0-.93c0-.12,0-.24,0-.36V56.4c0-.14,0-.28,0-.42l.18.05.37.1a8,8,0,0,0,1.37.21,4.58,4.58,0,0,0,.53,0h.17a.36.36,0,0,1,0,.09,2.83,2.83,0,0,0-.11.31,3,3,0,0,0-.14.57,2.71,2.71,0,0,0,0,.64,4.71,4.71,0,0,0,.09.52s0,.1.05.14v0a2.53,2.53,0,0,0,.33.63,1.89,1.89,0,0,0,.32.37,5.37,5.37,0,0,0-.45.35c-.21.16-.41.34-.6.51l-.29.27-.27.28c-.18.19-.36.38-.52.58s-.33.4-.48.61a3.46,3.46,0,0,0-.22.31,3.62,3.62,0,0,0-.22.32,3.45,3.45,0,0,0-.2.32c-.07.11-.14.21-.2.32l-.36.66-.17.33-.16.34c-.11.23-.21.45-.3.68s-.19.46-.28.68-.18.46-.26.7l-.24.69.38-.63.39-.61c.14-.2.27-.41.41-.6s.28-.4.43-.59l.22-.28.22-.28.47-.54.24-.25.25-.26.25-.24.26-.23c.18-.16.36-.3.54-.44s.36-.28.55-.41l.29-.18.29-.18.59-.32.38-.18.23-.1.63-.25.64-.22.08,0,.58-.17,4.12-1.16-.46-.13-1.95-.54-2-.56-.19,0-.35-.08a1.31,1.31,0,0,1-.39-.16.44.44,0,0,1-.17-.13s0,0,0,0,0,0,0,0a1.1,1.1,0,0,1,0-.25,2.35,2.35,0,0,1,.11-.24,1.09,1.09,0,0,1,.08-.15,3.09,3.09,0,0,1,.33-.43,4,4,0,0,1,.41-.41l1.37-1.43-1-.37-.73-.28-.36-.13-.2-.08-.55-.23-.55-.26-.26-.13h0l-.27-.14-.67-.38q-.72-.4-1.41-.87l-.05,0-.88-.61q-.6-.42-1.17-.87L190,50l-.33-.28-.48-.41-.16-.14-.31-.28,0,0,0-.07.06-.28.07-.27c0-.09,0-.18.08-.27a2.29,2.29,0,0,1,.08-.28c0-.09,0-.19.08-.28s.05-.18.08-.26.11-.37.18-.55,0-.14.07-.21l.5.19,3,1.18.79.31,2.75,1.09.79.31,3.05,1.21L201,51l3.6,1.43,0,.44,0,.77.06,1.76.07,2.12,0,.8,0,.89c0,.81,0,1.63.07,2.44,0,.26,0,.53,0,.8s0,.38,0,.56c0,.64,0,1.27,0,1.9,0,.3,0,.61,0,.91v0c0,.25,0,.51,0,.76a.76.76,0,0,0,0,.15c0,.07,0,.14,0,.21s0,.13,0,.15h0v0h0v0a1.89,1.89,0,0,1-.06.18c-.09.25-.22.53-.34.81-.26.53-.53,1.08-.82,1.61l0,0-.35.63c-.49.88-1,1.76-1.54,2.61-.1.15-.2.3-.29.45l-.41.63c-.45.69-.92,1.37-1.41,2-.31.41-.62.81-.94,1.21l-.21.25-.24.28c-.32.37-.66.73-1,1.07h0l-.25.22,0,.36,2.24,20.8A33,33,0,0,1,189.46,101.9Zm1.93-48.62.16.14c.23.2.45.39.68.57l.71.56a7.64,7.64,0,0,1-.79-.19c-.27-.08-.5-.16-.69-.23,0-.17,0-.34,0-.51Zm11,46-.79.33L198.4,79.77c.21-.18.4-.38.59-.57l5.24,8.54-4.83-9,.13-.14c.44-.49.86-1,1.26-1.49s1-1.22,1.4-1.84L210.34,83l-7.77-8.27.52-.74c.59-.88,1.17-1.77,1.72-2.68L215,76.88l-9.88-6.11v0c.33-.56.65-1.12,1-1.71.15-.3.3-.59.44-.93,0-.08.07-.17.1-.27l0-.07,0-.1,0-.07h0V67.5a2.67,2.67,0,0,0,.05-.33s0-.07,0-.1L218,69.73,206.87,66.4c0-.16,0-.32,0-.49s0-.64,0-1c0-.65,0-1.28,0-1.92,0-.21,0-.42,0-.63l12-.34-12-.34q0-1.26,0-2.52V57.66L218,54.38,207.05,57V52.16l8-4.93-8,4.33h0l0-.82-.77-.31-3.43-1.36,6.76-7.18a34,34,0,0,1,3.39,3,33.47,33.47,0,0,1-10.58,54.42Z"/><polygon class="cls-2" points="209.47 34.09 210.22 32.57 207.49 31.2 212.01 22.07 210.35 21.24 205.06 31.88 209.47 34.09"/><polygon class="cls-2" points="205.07 30.01 202.17 29.04 205.38 19.37 203.62 18.78 199.87 30.06 204.54 31.62 205.07 30.01"/><path class="cls-2" d="M202,114.73C204.5,111,204.1,110,204.1,110s-4.32,2.21-5.56,6.57a39.55,39.55,0,0,1,3-3c-1.23,1.64-2.71,3.48-2.71,3.48S199.35,117.31,202,114.73Z"/><path class="cls-2" d="M194.57,29l.68-2.07,2.25.38,0,2.19,1.85.31.11-12-2.68-.46-3.85,11.41Zm3.07-9.4-.12,6.08-1.77-.3Z"/><polygon class="cls-2" points="187.03 13.86 189.47 12.57 191.9 13.86 191.43 11.14 193.4 9.21 190.68 8.82 189.47 6.34 188.25 8.82 185.53 9.21 187.5 11.14 187.03 13.86"/><path class="cls-2" d="M192.61,20.89l0-1.15c0-1.91-.9-3-2.72-3s-2.79,1-2.82,2.95l-.1,6.18c0,1.9.9,3,2.72,3s2.79-1,2.82-2.94l0-1.58-1.76,0,0,1.7c0,.85-.39,1.15-1,1.14s-1-.32-.95-1.17l.11-6.42c0-.85.39-1.17,1-1.16s1,.34.95,1.19l0,1.27Z"/><path class="cls-2" d="M187.79,114.87a23,23,0,0,0-.11,4.35c.1,1.18.2,2.37.41,4.39.21,1.52.13,1.09.22,1.94a.54.54,0,0,0-.5.58c.07.33.67.48.67.48a4.45,4.45,0,0,0,.16,2.33,1.73,1.73,0,0,1-.16,1.52c-.55.37-.1.62-.1.62a2.34,2.34,0,0,0,2.23-.16c0-.39-.07-.59-.09-2,0-1.27-.1-2.55-.13-3a.43.43,0,0,0-.26-.21,25.78,25.78,0,0,1,1.16-11.25,6,6,0,0,1,0-4.15C188.45,111.08,187.93,113.87,187.79,114.87ZM190,115a.5.5,0,0,1-.4-.56.49.49,0,1,1,1,.16A.5.5,0,0,1,190,115Z"/><path class="cls-2" d="M174.14,114.27c.56-1.91-1.21-1.68-1.21-1.68-1.15,1.13.14,1.84.72,2,.07.12,1.1,1.28,2.17,2.57-2.27-.57-6.59-2.78-9.9-4.7a19.13,19.13,0,0,1-4.89-5.56c.07-.54-.39-1.83-.91-1.46s.07,1.32.47,1.54c0,.34,1,1.64,1.73,3-1.6-1.47-3.77-3.53-4.85-4.64a55.56,55.56,0,0,1-4-4.85,35.7,35.7,0,0,1-2.4-4,15.92,15.92,0,0,1-.33-8.24,5.14,5.14,0,0,1,1.07-2.63c0-.22-.2-.76-.63-.65s-.45.89-.54,1.65a16,16,0,0,0-.68,7.94,59.67,59.67,0,0,1-3.12-7.83,62.56,62.56,0,0,1-1.7-8.44c.1-.95-.2-1.71-.64-1.3s.17,1.61.17,1.61a52.31,52.31,0,0,0,1.09,6.3,51.7,51.7,0,0,0,3.35,9.09,70.25,70.25,0,0,0,4.42,7.45A36.61,36.61,0,0,0,150,99.37a2.17,2.17,0,0,0-.18-.47,1.5,1.5,0,0,0-1.91-.8s1.11,0,1.22.64a1.35,1.35,0,0,0-1.82-.06s-.36,1.28.65,1.66a2.12,2.12,0,0,0,2-.43s1.07.54,2.07,1.18c2.9,1.75,3.95,3.37,6.46,6.1-6.78-3.88-10.83-4.1-12-4.14a19.51,19.51,0,0,0,9.47,6.52c3.71,1,5.11.51,5.11.51s-3.35-1.47-4.58-2c1.11-.21,3.83,1.15,4.5,1.58s3.2,2.3,3.2,2.3a54.26,54.26,0,0,0,7.68,4.47,69.89,69.89,0,0,0,7.5,2.6,19.9,19.9,0,0,0-5.75.73c-2.19.64-2,.91-2,.91,4.3.54,7.93-1.1,8.73-1.23.42-.1,3.63.47,4.6.53a6.54,6.54,0,0,0,1.6-.57c-5.42-.42-7.71-1.23-9.82-2.19A10.13,10.13,0,0,1,174.14,114.27Z"/><path class="cls-2" d="M176.78,30.79l-.3-2.16,2.19-.65.91,2,1.8-.54-5.17-10.86-2.62.78,1.55,11.94ZM178,26.5l-1.72.51-.84-6Z"/><path class="cls-2" d="M180.39,116.52c-1.24-4.36-5.56-6.57-5.56-6.57s-.4,1,2.11,4.78c2.64,2.58,3.18,2.25,3.18,2.25s-1.48-1.84-2.71-3.48A42.29,42.29,0,0,1,180.39,116.52Z"/><polygon class="cls-2" points="175.1 31.34 174.38 29.8 171.61 31.11 167.27 21.9 165.59 22.7 170.65 33.45 175.1 31.34"/><path class="cls-2" d="M167.59,118.28c1.76.26,4.11,0,4.53-.39-1.23-1.53-5.76-2.28-5.76-2.28-9-1-11.25.39-11.25.39,8,4.66,13.86,3.73,16,2.66A13.44,13.44,0,0,1,167.59,118.28Z"/><path class="cls-2" d="M170.7,112.94s0-.44-1.33-3.78a21.2,21.2,0,0,0-8.31-10.06,15.76,15.76,0,0,0,3.13,8.89c3.27,4.57,4.68,4.77,5.77,4.78a31.32,31.32,0,0,1-4.66-6.16C169.78,112.69,170.7,112.94,170.7,112.94Z"/><polygon class="cls-2" points="169.84 33.87 168.91 32.46 166.23 34.25 164.31 31.35 166.43 29.93 165.5 28.51 163.37 29.93 161.54 27.18 164.22 25.39 163.28 23.97 159.06 26.8 165.62 36.7 169.84 33.87"/><path class="cls-2" d="M162.88,39.3c1.34-1.25,1.31-2.69,0-4.09l-6.1-6.66-1.3,1.2,6.19,6.74c.57.63.51,1.11.07,1.51s-.91.43-1.49-.2l-6.19-6.74-1.36,1.26,6.1,6.66C160.11,40.38,161.54,40.54,162.88,39.3Z"/><path class="cls-2" d="M162.69,113.09c.33-1-1.88-2.67-3.1-.79,0,0-.24,1.33.85,1.59C161.78,114.22,162.37,114.12,162.69,113.09Z"/><path class="cls-2" d="M158.17,102.88a1,1,0,0,0-.19.32,1.07,1.07,0,0,0,0,.64,1.42,1.42,0,0,0,1,1,1.16,1.16,0,0,0,1.28-.56.67.67,0,0,0,.1-.34,1.46,1.46,0,0,0-.1-.45,1.54,1.54,0,0,0-.4-.64.65.65,0,0,0-.61-.16,1.84,1.84,0,0,1,.93-.1A1.55,1.55,0,0,0,158.17,102.88Z"/><path class="cls-2" d="M154.55,44.25c1.49,1.18,2.92,1.1,4-.34s.87-2.86-.62-4l-1.24-1-1.08,1.39,1.32,1c.67.53.68,1,.31,1.48s-.83.57-1.5,0l-5-4c-.67-.52-.69-1-.32-1.48s.85-.56,1.51,0l1,.79L154,36.76l-.9-.71c-1.49-1.18-2.92-1.1-4,.34s-.87,2.86.62,4Z"/><path class="cls-2" d="M157.08,102.62a21.12,21.12,0,0,0-4.24-15.09A18.12,18.12,0,0,0,156,102.09c-.14-.91-.27-1.82-.4-2.73v0C156.07,100.47,156.57,101.55,157.08,102.62Z"/><path class="cls-2" d="M145.88,47c3,1.66,5.13-1.3,7.26-.11.73.42.82.89.53,1.41s-.74.7-1.48.28l-.73-.41-.86,1.54.63.36c1.65.93,3.06.63,4-1s.42-3-1.24-3.89c-2.95-1.67-5.12,1.3-7.25.1-.74-.42-.85-.87-.56-1.39s.73-.66,1.47-.24l.43.24.86-1.54-.33-.18c-1.65-.93-3.05-.65-3.93.94S144.23,46,145.88,47Z"/><polygon class="cls-2" points="153.46 51.97 151.88 51.37 150.75 54.39 147.51 53.17 148.4 50.77 146.82 50.18 145.92 52.58 142.83 51.42 143.96 48.4 142.37 47.8 140.6 52.58 151.69 56.74 153.46 51.97"/><path class="cls-2" d="M150,79.79a10.65,10.65,0,0,0-.87-3.74,7.81,7.81,0,0,0-1.45,3.39,13.61,13.61,0,0,0-.48,2.53,13.58,13.58,0,0,0,.38,3.47,10.18,10.18,0,0,0,.63,2.3,9,9,0,0,0,.53-2.45,9,9,0,0,1,0,2.14C150.08,85.2,150.2,82.41,150,79.79Z"/><path class="cls-2" d="M147.83,95.44a.56.56,0,0,0,.45-.36.8.8,0,0,0-.07-.5,21.25,21.25,0,0,0-7.68-10.14,19.69,19.69,0,0,0,4.35,9,6,6,0,0,0,2.36,1.86A1.31,1.31,0,0,0,147.83,95.44Z"/><path class="cls-2" d="M144.92,75.49a.8.8,0,0,0,.7-.34,2.12,2.12,0,0,0,.34-.73,21.38,21.38,0,0,0,1-8.94v-.07a23.5,23.5,0,0,0-2.16,4.24,10.39,10.39,0,0,0-.65,4.68,2,2,0,0,0,.19.72A.81.81,0,0,0,144.92,75.49Z"/><polygon class="cls-2" points="144.32 61.6 145.89 62.43 145.59 60.67 146.86 59.42 145.1 59.17 144.32 57.57 143.53 59.17 141.77 59.42 143.04 60.67 142.74 62.43 144.32 61.6"/><path class="cls-2" d="M144,84a.74.74,0,0,0-.78.41.88.88,0,0,0,0,.62,1,1,0,0,0,.62.64.65.65,0,0,0,.78-.3.7.7,0,0,0-.15-.73,1.49,1.49,0,0,0-.27-.23,1,1,0,0,1,.57.09A1.27,1.27,0,0,0,144,84Z"/><path class="cls-2" d="M141.84,77.62a30.53,30.53,0,0,0,1.76,4.51,12.37,12.37,0,0,0-2.85-9.25,12,12,0,0,0,2.1,9.47A44.69,44.69,0,0,1,141.84,77.62Z"/><path class="cls-3" d="M49.74,42c.69,0,1.22.09,1.74.09q20.22,0,40.42,0c1.31,0,2.61,0,3.34,1.36a3.68,3.68,0,0,1-.37,3.84q-10.53,17.91-21,35.85-10.83,18.48-21.63,37-5,8.56-10,17.15c-.7,1.2-1.47,2.27-3.13,2.18a2.49,2.49,0,0,1-2.67-2.71c0-2,.3-3.93.51-5.89.5-4.73,1-9.45,1.54-14.17q.9-8.25,1.79-16.49l1.65-15.21c.07-.68-.18-1-.88-1.05H4.68c-.27,0-.54,0-.81,0C1,84-.41,82.43.11,79.51,1.56,71.4,2.85,63.26,4.2,55.13Q8.29,30.44,12.4,5.77c.18-1.11.32-2.22.53-3.32A2.93,2.93,0,0,1,15.68,0c.3,0,.61,0,.92,0H62.48a3.39,3.39,0,0,1,2.85,1,2.77,2.77,0,0,1,.49,3c-1.56,3.67-3.1,7.35-4.67,11q-5.57,13-11.15,26A8.69,8.69,0,0,0,49.74,42Z"/><path class="cls-3" d="M66.43,135.84,52,127.57l3.3-5.75a6.59,6.59,0,0,1,3.37-3.17,5.07,5.07,0,0,1,4.38.63q4.92,2.81,2,7.93l-1.22,2.13,4.8,2.74Zm-9.28-10.3,3.61,2.07.36-.64c.21-.35.36-.63.46-.82a4.12,4.12,0,0,0,.3-.77,1.85,1.85,0,0,0,.1-.79,1.73,1.73,0,0,0-.31-.67,2.24,2.24,0,0,0-.77-.66,2.74,2.74,0,0,0-1-.36,1.79,1.79,0,0,0-.75.06,1.49,1.49,0,0,0-.64.46,7.05,7.05,0,0,0-.51.65l-.51.84Z"/><path class="cls-3" d="M71.51,113.21,80,112.06l-2.68,4.68-7.59.37,0,0,5.56,3.19-2.15,3.75L58.7,115.81l3.21-5.62a6.53,6.53,0,0,1,3.2-3,4.67,4.67,0,0,1,4.13.53,5.07,5.07,0,0,1,2.2,2.37A4.08,4.08,0,0,1,71.51,113.21Zm-7.78.49,3.6,2.06.21-.36q1.48-2.61-.31-3.64t-3.3,1.58Z"/><path class="cls-3" d="M82.65,101.66l-3,5.18,1.94,2.44-2.28,4L68.07,99.43l2.34-4.1L88,98.15l-2.29,4ZM79.19,101l-5.48-1.09,0,0,3.71,4.19Z"/><path class="cls-3" d="M82.85,89.2,73.48,90l2.64-4.63,5-.06-2.48-4.35,2.65-4.62,4.08,8.47,10.8-.93-2.59,4.53-6.46.33,2.83,6-2.6,4.54Z"/><path class="cls-3" d="M84,71.66l14.46,8.27-2.14,3.76L81.8,75.42Z"/><path class="cls-3" d="M91,61.15l2.06,3.16a4.42,4.42,0,0,0-2.38,1.94,2.33,2.33,0,0,0-.31,1.29,1.18,1.18,0,0,0,.59,1,1.15,1.15,0,0,0,.88.08,2.24,2.24,0,0,0,.76-.36c.18-.14.42-.34.7-.6l.84-.8a7.19,7.19,0,0,1,2.91-1.82,3.86,3.86,0,0,1,3.08.52,5.57,5.57,0,0,1,3,3.72,7.09,7.09,0,0,1-1,4.88,10,10,0,0,1-4.56,4.14L95.54,75A6,6,0,0,0,99,72.5,2.47,2.47,0,0,0,99.3,71a1.41,1.41,0,0,0-.76-1.17c-.66-.37-1.51,0-2.56,1,0,0-.17.15-.4.38a17.15,17.15,0,0,1-1.47,1.32,6.31,6.31,0,0,1-1.38.79,2.77,2.77,0,0,1-1.63.19,5.7,5.7,0,0,1-1.85-.73,5.32,5.32,0,0,1-2.71-3.41A5.7,5.7,0,0,1,87.26,65a10.43,10.43,0,0,1,1.65-2.14A10.76,10.76,0,0,1,91,61.15Z"/><g class="cls-4"><polygon class="cls-5" points="131.93 145.41 133.54 140.52 138.75 140.52 134.54 137.5 136.15 132.61 131.93 135.63 127.71 132.61 129.32 137.5 125.1 140.52 130.32 140.52 131.93 145.41"/><polygon class="cls-5" points="151.04 145.41 152.65 140.52 157.87 140.52 153.65 137.5 155.26 132.61 151.04 135.63 146.82 132.61 148.43 137.5 144.22 140.52 149.43 140.52 151.04 145.41"/><polygon class="cls-5" points="170.15 145.41 171.76 140.52 176.98 140.52 172.76 137.5 174.37 132.61 170.15 135.63 165.94 132.61 167.55 137.5 163.33 140.52 168.54 140.52 170.15 145.41"/><polygon class="cls-5" points="189.27 145.41 190.88 140.52 196.09 140.52 191.87 137.5 193.48 132.61 189.27 135.63 185.05 132.61 186.66 137.5 182.44 140.52 187.65 140.52 189.27 145.41"/><polygon class="cls-5" points="208.38 145.41 209.99 140.52 215.2 140.52 210.99 137.5 212.6 132.61 208.38 135.63 204.16 132.61 205.77 137.5 201.55 140.52 206.77 140.52 208.38 145.41"/><polygon class="cls-5" points="227.49 145.41 229.1 140.52 234.32 140.52 230.1 137.5 231.71 132.61 227.49 135.63 223.27 132.61 224.88 137.5 220.66 140.52 225.88 140.52 227.49 145.41"/><polygon class="cls-5" points="246.6 145.41 248.21 140.52 253.43 140.52 249.21 137.5 250.82 132.61 246.6 135.63 242.38 132.61 244 137.5 239.78 140.52 244.99 140.52 246.6 145.41"/><polygon class="cls-5" points="120.21 131.4 121.82 126.51 127.03 126.51 122.82 123.49 124.43 118.6 120.21 121.63 115.99 118.6 117.6 123.49 113.38 126.51 118.6 126.51 120.21 131.4"/><polygon class="cls-5" points="139.32 131.4 140.93 126.51 146.15 126.51 141.93 123.49 143.54 118.6 139.32 121.63 135.1 118.6 136.71 123.49 132.5 126.51 137.71 126.51 139.32 131.4"/><polygon class="cls-5" points="158.43 131.4 160.04 126.51 165.26 126.51 161.04 123.49 162.65 118.6 158.43 121.63 154.22 118.6 155.83 123.49 151.61 126.51 156.82 126.51 158.43 131.4"/><polygon class="cls-5" points="177.55 131.4 179.16 126.51 184.37 126.51 180.15 123.49 181.76 118.6 177.55 121.63 173.33 118.6 174.94 123.49 170.72 126.51 175.94 126.51 177.55 131.4"/><polygon class="cls-5" points="196.66 131.4 198.27 126.51 203.48 126.51 199.26 123.49 200.88 118.6 196.66 121.63 192.44 118.6 194.05 123.49 189.83 126.51 195.05 126.51 196.66 131.4"/><polygon class="cls-5" points="215.77 131.4 217.38 126.51 222.6 126.51 218.38 123.49 219.99 118.6 215.77 121.63 211.55 118.6 213.16 123.49 208.94 126.51 214.16 126.51 215.77 131.4"/><polygon class="cls-5" points="234.88 131.4 236.49 126.51 241.71 126.51 237.49 123.49 239.1 118.6 234.88 121.63 230.66 118.6 232.28 123.49 228.06 126.51 233.27 126.51 234.88 131.4"/><polygon class="cls-5" points="131.93 118.6 133.54 113.72 138.75 113.72 134.54 110.69 136.15 105.81 131.93 108.83 127.71 105.81 129.32 110.69 125.1 113.72 130.32 113.72 131.93 118.6"/><polygon class="cls-5" points="151.04 118.6 152.65 113.72 157.87 113.72 153.65 110.69 155.26 105.81 151.04 108.83 146.82 105.81 148.43 110.69 144.22 113.72 149.43 113.72 151.04 118.6"/><polygon class="cls-5" points="170.15 118.6 171.76 113.72 176.98 113.72 172.76 110.69 174.37 105.81 170.15 108.83 165.94 105.81 167.55 110.69 163.33 113.72 168.54 113.72 170.15 118.6"/><polygon class="cls-5" points="189.27 118.6 190.88 113.72 196.09 113.72 191.87 110.69 193.48 105.81 189.27 108.83 185.05 105.81 186.66 110.69 182.44 113.72 187.65 113.72 189.27 118.6"/><polygon class="cls-5" points="208.38 118.6 209.99 113.72 215.2 113.72 210.99 110.69 212.6 105.81 208.38 108.83 204.16 105.81 205.77 110.69 201.55 113.72 206.77 113.72 208.38 118.6"/><polygon class="cls-5" points="227.49 118.6 229.1 113.72 234.32 113.72 230.1 110.69 231.71 105.81 227.49 108.83 223.27 105.81 224.88 110.69 220.66 113.72 225.88 113.72 227.49 118.6"/><polygon class="cls-5" points="246.6 118.6 248.21 113.72 253.43 113.72 249.21 110.69 250.82 105.81 246.6 108.83 242.38 105.81 244 110.69 239.78 113.72 244.99 113.72 246.6 118.6"/><polygon class="cls-5" points="120.21 104.6 121.82 99.71 127.03 99.71 122.82 96.69 124.43 91.8 120.21 94.82 115.99 91.8 117.6 96.69 113.38 99.71 118.6 99.71 120.21 104.6"/><polygon class="cls-5" points="139.32 104.6 140.93 99.71 146.15 99.71 141.93 96.69 143.54 91.8 139.32 94.82 135.1 91.8 136.71 96.69 132.5 99.71 137.71 99.71 139.32 104.6"/><polygon class="cls-5" points="158.43 104.6 160.04 99.71 165.26 99.71 161.04 96.69 162.65 91.8 158.43 94.82 154.22 91.8 155.83 96.69 151.61 99.71 156.82 99.71 158.43 104.6"/><polygon class="cls-5" points="177.55 104.6 179.16 99.71 184.37 99.71 180.15 96.69 181.76 91.8 177.55 94.82 173.33 91.8 174.94 96.69 170.72 99.71 175.94 99.71 177.55 104.6"/><polygon class="cls-5" points="196.66 104.6 198.27 99.71 203.48 99.71 199.26 96.69 200.88 91.8 196.66 94.82 192.44 91.8 194.05 96.69 189.83 99.71 195.05 99.71 196.66 104.6"/><polygon class="cls-5" points="215.77 104.6 217.38 99.71 222.6 99.71 218.38 96.69 219.99 91.8 215.77 94.82 211.55 91.8 213.16 96.69 208.94 99.71 214.16 99.71 215.77 104.6"/><polygon class="cls-5" points="234.88 104.6 236.49 99.71 241.71 99.71 237.49 96.69 239.1 91.8 234.88 94.82 230.66 91.8 232.28 96.69 228.06 99.71 233.27 99.71 234.88 104.6"/><polygon class="cls-5" points="-1.29 145.41 0.32 140.52 5.54 140.52 1.32 137.5 2.93 132.61 -1.29 135.63 -5.51 132.61 -3.9 137.5 -8.12 140.52 -2.9 140.52 -1.29 145.41"/><polygon class="cls-5" points="17.82 145.41 19.43 140.52 24.65 140.52 20.43 137.5 22.04 132.61 17.82 135.63 13.6 132.61 15.21 137.5 11 140.52 16.21 140.52 17.82 145.41"/><polygon class="cls-5" points="36.93 145.41 38.55 140.52 43.76 140.52 39.54 137.5 41.15 132.61 36.93 135.63 32.72 132.61 34.33 137.5 30.11 140.52 35.32 140.52 36.93 145.41"/><polygon class="cls-5" points="56.05 145.41 57.66 140.52 62.87 140.52 58.65 137.5 60.27 132.61 56.05 135.63 51.83 132.61 53.44 137.5 49.22 140.52 54.44 140.52 56.05 145.41"/><polygon class="cls-5" points="75.16 145.41 76.77 140.52 81.98 140.52 77.77 137.5 79.38 132.61 75.16 135.63 70.94 132.61 72.55 137.5 68.33 140.52 73.55 140.52 75.16 145.41"/><polygon class="cls-5" points="94.27 145.41 95.88 140.52 101.1 140.52 96.88 137.5 98.49 132.61 94.27 135.63 90.05 132.61 91.66 137.5 87.44 140.52 92.66 140.52 94.27 145.41"/><polygon class="cls-5" points="113.38 145.41 115 140.52 120.21 140.52 115.99 137.5 117.6 132.61 113.38 135.63 109.17 132.61 110.78 137.5 106.56 140.52 111.77 140.52 113.38 145.41"/><polygon class="cls-5" points="132.5 145.41 134.11 140.52 139.32 140.52 135.1 137.5 136.71 132.61 132.5 135.63 128.28 132.61 129.89 137.5 125.67 140.52 130.88 140.52 132.5 145.41"/><polygon class="cls-5" points="6.1 131.4 7.71 126.51 12.93 126.51 8.71 123.49 10.32 118.6 6.1 121.63 1.88 118.6 3.5 123.49 -0.72 126.51 4.49 126.51 6.1 131.4"/><polygon class="cls-5" points="25.21 131.4 26.83 126.51 32.04 126.51 27.82 123.49 29.43 118.6 25.21 121.63 21 118.6 22.61 123.49 18.39 126.51 23.6 126.51 25.21 131.4"/><polygon class="cls-5" points="44.33 131.4 45.94 126.51 51.15 126.51 46.93 123.49 48.55 118.6 44.33 121.63 40.11 118.6 41.72 123.49 37.5 126.51 42.72 126.51 44.33 131.4"/><polygon class="cls-5" points="63.44 131.4 65.05 126.51 70.27 126.51 66.05 123.49 67.66 118.6 63.44 121.63 59.22 118.6 60.83 123.49 56.61 126.51 61.83 126.51 63.44 131.4"/><polygon class="cls-5" points="82.55 131.4 84.16 126.51 89.38 126.51 85.16 123.49 86.77 118.6 82.55 121.63 78.33 118.6 79.94 123.49 75.73 126.51 80.94 126.51 82.55 131.4"/><polygon class="cls-5" points="101.66 131.4 103.28 126.51 108.49 126.51 104.27 123.49 105.88 118.6 101.66 121.63 97.44 118.6 99.06 123.49 94.84 126.51 100.05 126.51 101.66 131.4"/><polygon class="cls-5" points="120.78 131.4 122.39 126.51 127.6 126.51 123.38 123.49 125 118.6 120.78 121.63 116.56 118.6 118.17 123.49 113.95 126.51 119.17 126.51 120.78 131.4"/><polygon class="cls-5" points="-1.29 118.6 0.32 113.72 5.54 113.72 1.32 110.69 2.93 105.81 -1.29 108.83 -5.51 105.81 -3.9 110.69 -8.12 113.72 -2.9 113.72 -1.29 118.6"/><polygon class="cls-5" points="17.82 118.6 19.43 113.72 24.65 113.72 20.43 110.69 22.04 105.81 17.82 108.83 13.6 105.81 15.21 110.69 11 113.72 16.21 113.72 17.82 118.6"/><polygon class="cls-5" points="36.93 118.6 38.55 113.72 43.76 113.72 39.54 110.69 41.15 105.81 36.93 108.83 32.72 105.81 34.33 110.69 30.11 113.72 35.32 113.72 36.93 118.6"/><polygon class="cls-5" points="56.05 118.6 57.66 113.72 62.87 113.72 58.65 110.69 60.27 105.81 56.05 108.83 51.83 105.81 53.44 110.69 49.22 113.72 54.44 113.72 56.05 118.6"/><polygon class="cls-5" points="75.16 118.6 76.77 113.72 81.98 113.72 77.77 110.69 79.38 105.81 75.16 108.83 70.94 105.81 72.55 110.69 68.33 113.72 73.55 113.72 75.16 118.6"/><polygon class="cls-5" points="94.27 118.6 95.88 113.72 101.1 113.72 96.88 110.69 98.49 105.81 94.27 108.83 90.05 105.81 91.66 110.69 87.44 113.72 92.66 113.72 94.27 118.6"/><polygon class="cls-5" points="113.38 118.6 115 113.72 120.21 113.72 115.99 110.69 117.6 105.81 113.38 108.83 109.17 105.81 110.78 110.69 106.56 113.72 111.77 113.72 113.38 118.6"/><polygon class="cls-5" points="132.5 118.6 134.11 113.72 139.32 113.72 135.1 110.69 136.71 105.81 132.5 108.83 128.28 105.81 129.89 110.69 125.67 113.72 130.88 113.72 132.5 118.6"/><polygon class="cls-5" points="6.1 104.6 7.71 99.71 12.93 99.71 8.71 96.69 10.32 91.8 6.1 94.82 1.88 91.8 3.5 96.69 -0.72 99.71 4.49 99.71 6.1 104.6"/><polygon class="cls-5" points="25.21 104.6 26.83 99.71 32.04 99.71 27.82 96.69 29.43 91.8 25.21 94.82 21 91.8 22.61 96.69 18.39 99.71 23.6 99.71 25.21 104.6"/><polygon class="cls-5" points="44.33 104.6 45.94 99.71 51.15 99.71 46.93 96.69 48.55 91.8 44.33 94.82 40.11 91.8 41.72 96.69 37.5 99.71 42.72 99.71 44.33 104.6"/><polygon class="cls-5" points="63.44 104.6 65.05 99.71 70.27 99.71 66.05 96.69 67.66 91.8 63.44 94.82 59.22 91.8 60.83 96.69 56.61 99.71 61.83 99.71 63.44 104.6"/><polygon class="cls-5" points="82.55 104.6 84.16 99.71 89.38 99.71 85.16 96.69 86.77 91.8 82.55 94.82 78.33 91.8 79.94 96.69 75.73 99.71 80.94 99.71 82.55 104.6"/><polygon class="cls-5" points="101.66 104.6 103.28 99.71 108.49 99.71 104.27 96.69 105.88 91.8 101.66 94.82 97.44 91.8 99.06 96.69 94.84 99.71 100.05 99.71 101.66 104.6"/><polygon class="cls-5" points="120.78 104.6 122.39 99.71 127.6 99.71 123.38 96.69 125 91.8 120.78 94.82 116.56 91.8 118.17 96.69 113.95 99.71 119.17 99.71 120.78 104.6"/></g></svg>